<?xml version="1.0" standalone="no"?>
<!DOCTYPE svg PUBLIC "-//W3C//DTD SVG 20010904//EN"
 "http://www.w3.org/TR/2001/REC-SVG-20010904/DTD/svg10.dtd">
<svg version="1.0" xmlns="http://www.w3.org/2000/svg"
 width="1024.000000pt" height="1536.000000pt" viewBox="0 0 1024.000000 1536.000000"
 preserveAspectRatio="xMidYMid meet">
<metadata>
Created by potrace 1.16, written by Peter Selinger 2001-2019
</metadata>
<g transform="translate(0.000000,1536.000000) scale(0.100000,-0.100000)"
fill="#000000" stroke="none">
<path d="M0 7680 l0 -7680 5120 0 5120 0 0 7680 0 7680 -5120 0 -5120 0 0
-7680z m7970 7440 c39 -41 42 -80 38 -400 -3 -245 -5 -268 -23 -300 -12 -19
-36 -43 -55 -52 -33 -17 -188 -18 -2813 -18 -2555 0 -2781 1 -2807 16 -15 9
-36 31 -46 48 -17 28 -19 58 -22 336 l-3 305 23 35 c13 19 35 40 48 47 20 10
606 13 2828 13 l2804 0 28 -30z m-2791 -1282 c39 54 61 75 61 57 0 -12 -113
-156 -120 -153 -15 6 -122 149 -116 155 6 7 14 -1 68 -74 17 -24 34 -43 37
-43 3 0 6 64 7 143 2 296 8 342 14 97 l5 -245 44 63z m2209 169 c-2 -125 -1
-227 2 -226 3 0 24 27 48 61 24 33 46 58 49 55 8 -8 -100 -157 -112 -154 -13
4 -115 139 -115 152 1 10 16 -7 77 -81 l32 -39 0 240 c1 165 4 236 11 229 7
-7 10 -90 8 -237z m-4522 -8 c-2 -126 -2 -229 -1 -229 1 0 21 27 44 60 42 60
70 87 59 58 -6 -14 -108 -158 -113 -158 -1 0 -30 36 -64 80 -34 44 -57 80 -51
80 5 0 31 -28 58 -61 l47 -61 3 236 c1 153 6 235 12 231 6 -4 9 -91 6 -236z
m3337 -448 c15 -8 36 -29 47 -46 19 -31 20 -52 20 -495 l0 -462 -39 -39 -39
-39 -1072 0 -1072 0 -34 34 c-19 19 -34 40 -34 48 0 7 9 -1 20 -19 10 -17 28
-37 39 -42 13 -8 352 -11 1086 -11 l1067 0 34 34 34 34 0 467 0 467 -34 34
-34 34 -1061 0 c-1150 0 -1102 2 -1133 -53 -10 -16 -14 -134 -18 -477 l-5
-455 -3 443 c-2 473 -1 483 48 527 15 14 42 22 89 26 36 3 516 5 1066 5 843
-1 1004 -3 1028 -15z m2681 5 c36 -15 76 -60 76 -85 0 -9 -8 -1 -17 17 -33 68
51 63 -1158 62 -715 0 -1104 -4 -1116 -11 -48 -25 -49 -38 -49 -519 0 -384 2
-455 15 -480 33 -63 -32 -60 1158 -60 1083 0 1084 0 1111 21 51 40 51 35 56
509 l6 445 2 -439 c2 -428 2 -439 -19 -476 -43 -76 49 -70 -1162 -70 l-1084 0
-34 23 c-18 12 -39 34 -46 47 -10 19 -13 137 -13 487 l0 461 26 31 c14 17 40
35 57 40 19 5 483 10 1095 10 882 1 1068 -1 1096 -13z m-5305 -9 c13 -6 34
-25 45 -40 20 -28 21 -39 24 -480 3 -499 3 -494 -61 -541 -28 -21 -36 -21
-1125 -24 -1042 -3 -1099 -2 -1132 15 -70 36 -70 35 -70 531 0 489 1 494 62
532 33 20 47 20 1133 20 853 0 1105 -3 1124 -13z m1687 -332 l1 -60 -6 55 -6
55 -99 3 c-94 3 -98 2 -85 -15 13 -16 12 -17 -3 -4 -34 26 -18 32 90 29 l107
-3 1 -60z m2364 49 c-8 -1 -37 -6 -64 -9 l-49 -7 6 -84 c3 -46 9 -89 13 -95 4
-7 27 -10 60 -7 29 3 51 1 48 -4 -3 -4 -31 -8 -63 -8 -57 0 -59 1 -65 31 -8
42 -8 174 1 182 3 4 34 6 67 6 34 -1 54 -3 46 -5z m115 -94 l-7 -100 51 0 c29
0 51 -5 51 -11 0 -6 -21 -9 -52 -7 l-53 3 -3 108 c-2 73 1 107 8 107 8 0 10
-30 5 -100z m175 -4 c0 -59 -4 -108 -10 -111 -6 -4 -10 33 -10 104 0 67 4 111
10 111 6 0 10 -41 10 -104z m-2840 -54 c13 -13 13 -13 -5 -4 -11 6 -47 36 -80
67 l-60 57 65 -53 c36 -29 72 -59 80 -67z m-153 -44 c-2 -29 -3 -6 -3 52 0 58
1 81 3 53 2 -29 2 -77 0 -105z m301 125 c-15 -2 -42 -2 -60 0 -18 2 -6 4 27 4
33 0 48 -2 33 -4z m2382 -33 c0 -5 -8 -10 -17 -10 -15 0 -16 2 -3 10 19 12 20
12 20 0z m-2343 -32 c-3 -8 -6 -5 -6 6 -1 11 2 17 5 13 3 -3 4 -12 1 -19z
m-39 -15 c-15 -2 -42 -2 -60 0 -18 2 -6 4 27 4 33 0 48 -2 33 -4z m38 -69 c-3
-8 -11 -14 -18 -13 -10 0 -10 2 0 6 6 2 13 19 13 36 1 25 3 27 6 9 3 -13 2
-30 -1 -38z m-56 -18 c14 -2 -14 -4 -62 -5 -49 0 -88 2 -88 7 0 6 92 6 150 -2z
m2102 -142 c9 -9 15 -21 12 -26 -3 -5 -16 0 -28 11 -50 47 -124 3 -112 -68 11
-68 67 -92 113 -49 19 18 23 19 23 5 0 -28 -45 -50 -85 -43 -81 15 -99 141
-26 181 30 17 77 12 103 -11z m78 -70 l0 -84 51 0 c31 0 48 -4 44 -10 -3 -5
-31 -10 -61 -10 l-54 0 0 101 c0 64 4 98 10 94 6 -3 10 -44 10 -91z m150 -4
c0 -60 -4 -100 -10 -100 -6 0 -10 40 -10 100 0 60 4 100 10 100 6 0 10 -40 10
-100z m582 0 c0 -50 -3 -94 -6 -97 -3 -4 -6 40 -6 97 0 57 3 101 6 97 3 -3 6
-47 6 -97z m-2736 -12 c-57 -135 -76 -138 -23 -4 23 58 47 106 54 106 7 0 -5
-41 -31 -102z m2410 93 c-3 -4 -17 -6 -31 -3 l-25 4 0 -91 c0 -54 -4 -91 -10
-91 -6 0 -10 36 -10 89 l0 90 -32 4 c-18 2 0 5 40 5 40 1 71 -2 68 -7z m-3515
-80 c15 -41 30 -75 33 -78 2 -2 13 20 24 49 39 103 43 111 49 105 9 -10 -60
-187 -73 -187 -7 0 -16 12 -22 28 -5 15 -21 58 -36 95 -14 38 -21 67 -14 65 6
-2 24 -37 39 -77z m264 59 c22 -24 18 -25 -23 -4 -24 12 -36 13 -52 4 -33 -18
-20 -43 30 -60 63 -21 70 -27 70 -60 0 -35 -26 -52 -77 -52 -36 0 -84 34 -69
49 4 4 12 0 17 -9 5 -10 26 -20 46 -24 31 -6 39 -3 55 16 24 29 13 41 -57 67
-53 20 -69 49 -45 79 19 21 83 18 105 -6z m276 -1 c25 -25 17 -39 -9 -16 -10
10 -32 17 -49 17 -66 0 -93 -91 -39 -136 33 -29 46 -30 80 -3 33 26 45 18 17
-10 -32 -32 -93 -29 -120 5 -31 39 -29 107 4 139 31 32 86 34 116 4z m319 -72
l0 -94 -44 -1 c-54 -2 -76 16 -76 64 0 55 55 95 88 62 9 -9 12 -4 12 25 0 20
5 37 10 37 6 0 10 -38 10 -93z m352 -2 c-2 -52 -8 -95 -13 -95 -5 0 -9 43 -9
95 0 69 3 95 13 95 9 0 11 -24 9 -95z m169 82 c47 -36 53 -115 13 -152 -22
-20 -38 -25 -80 -25 l-52 0 0 88 c0 48 2 90 5 95 7 12 97 7 114 -6z m204 3
c-3 -5 -28 -10 -56 -10 -48 0 -49 -1 -49 -30 0 -29 2 -30 45 -30 25 0 45 -4
45 -10 0 -5 -21 -10 -46 -10 l-45 0 3 -37 3 -37 53 3 c32 1 52 -2 52 -8 0 -7
-25 -11 -65 -11 l-65 0 0 95 0 95 66 0 c41 0 63 -4 59 -10z m2037 -47 c24 -22
24 -77 -2 -103 -42 -42 -100 -13 -100 48 0 63 58 95 102 55z m152 -5 c22 -31
20 -74 -4 -98 -58 -58 -141 28 -90 93 27 34 72 37 94 5z m196 7 c14 -17 7 -19
-20 -5 -10 5 -26 7 -34 4 -29 -11 -17 -33 24 -44 22 -6 40 -12 40 -15 0 -2 3
-10 6 -18 14 -37 -59 -62 -91 -31 -19 20 -12 32 9 15 19 -16 61 -10 61 8 0 8
-15 19 -33 25 -40 14 -54 33 -41 58 12 22 62 24 79 3z m-3280 -13 c25 -20 30
-65 10 -101 -13 -26 -65 -28 -92 -4 -24 22 -24 77 2 103 25 25 51 25 80 2z
m304 -4 c30 -43 21 -58 -34 -58 -53 0 -60 -8 -34 -35 17 -16 27 -16 69 1 18 7
18 6 6 -9 -20 -25 -76 -22 -95 5 -22 31 -20 60 5 92 25 32 62 34 83 4z m712 8
c10 -8 15 -18 11 -22 -4 -5 -12 -3 -16 5 -11 17 -56 10 -56 -8 0 -8 14 -19 32
-25 47 -16 57 -29 44 -55 -19 -35 -101 -24 -101 13 0 5 9 1 20 -9 13 -12 27
-15 45 -11 38 10 30 33 -17 48 -48 15 -62 43 -32 65 23 17 45 17 70 -1z
m-3488 -670 c-2 -119 -1 -216 2 -216 3 0 23 25 44 55 35 48 56 67 56 50 0 -3
-26 -40 -57 -82 l-57 -75 -33 38 c-54 64 -95 124 -84 124 5 0 31 -28 58 -61
l48 -62 3 233 c2 163 6 230 13 223 7 -7 9 -85 7 -227z m2680 -163 c23 31 47
57 52 57 10 0 -81 -130 -104 -149 -9 -8 -27 10 -70 65 -32 41 -55 78 -52 81 6
7 14 -1 68 -74 17 -24 33 -42 34 -40 2 2 4 79 5 172 3 273 14 302 19 56 l5
-224 43 56z m2580 167 c-2 -121 0 -220 3 -220 3 0 23 25 45 55 21 30 45 55 52
55 7 0 -15 -36 -48 -80 l-61 -80 -53 67 c-64 84 -70 93 -57 93 6 0 30 -27 53
-61 l43 -61 3 226 c1 147 6 226 13 226 7 0 9 -73 7 -220z m-535 -447 c-1150
-2 -3036 -2 -4190 0 -1154 1 -213 2 2092 2 2305 0 3249 -1 2098 -2z m-6303 -7
c0 -2 -7 -7 -16 -10 -8 -3 -12 -2 -9 4 6 10 25 14 25 6z m8490 -57 c15 -28 5
-23 -15 7 -9 15 -12 23 -6 20 6 -4 16 -16 21 -27z m-8577 -11 c-4 -7 -10 -526
-13 -1153 l-5 -1140 -3 1133 c-2 1072 0 1172 24 1172 3 0 2 -6 -3 -12z m8604
-1168 c-1 -613 -3 -998 -4 -855 -7 634 -7 2003 -1 1987 4 -9 6 -519 5 -1132z
m-3087 906 c-15 -40 -12 -141 4 -181 8 -19 11 -35 7 -35 -16 0 -41 80 -41 131
0 27 7 66 15 86 17 41 31 40 15 -1z m1957 -7 c7 -19 12 -55 12 -81 1 -48 -24
-128 -40 -128 -4 0 -1 16 7 35 18 45 18 152 -1 188 -10 21 -11 27 -2 25 6 -3
17 -20 24 -39z m-7117 -75 c0 -56 -4 -94 -10 -94 -6 0 -10 40 -10 101 0 64 4
98 10 94 6 -3 10 -48 10 -101z m141 16 l54 -82 3 86 c4 118 22 101 22 -20 0
-73 -3 -94 -14 -94 -7 0 -38 37 -67 82 l-54 82 -3 -87 c-4 -118 -22 -103 -22
17 0 89 4 111 20 101 4 -2 31 -41 61 -85z m279 80 c0 -5 -16 -10 -35 -10 l-35
0 0 -90 c0 -53 -4 -90 -10 -90 -6 0 -10 37 -10 90 l0 90 -36 0 c-19 0 -33 4
-30 8 7 12 156 14 156 2z m178 -4 c3 -3 -22 -6 -56 -6 l-62 0 0 -35 c0 -35 0
-35 45 -35 25 0 45 -4 45 -10 0 -5 -20 -10 -45 -10 -45 0 -45 0 -45 -35 l0
-35 60 0 c33 0 60 -4 60 -10 0 -6 -30 -10 -70 -10 l-70 0 0 98 0 98 66 -2 c36
-2 69 -5 72 -8z m189 -7 c21 -18 16 -66 -9 -83 l-21 -15 27 -41 c17 -26 22
-40 13 -40 -7 0 -23 18 -36 40 -18 32 -28 40 -52 40 -27 0 -29 -2 -29 -40 0
-29 -4 -40 -15 -40 -12 0 -15 17 -15 93 0 52 3 96 6 100 10 9 116 -2 131 -14z
m144 -59 c28 -44 54 -80 58 -80 3 0 5 33 3 74 -3 46 0 76 7 80 8 5 11 -23 11
-93 0 -60 -4 -101 -10 -101 -5 0 -34 36 -62 80 -29 44 -55 80 -58 80 -3 0 -4
-36 -2 -80 3 -54 1 -80 -7 -80 -7 0 -11 34 -11 100 0 61 4 100 10 100 6 0 33
-36 61 -80z m236 68 c22 -29 81 -188 69 -188 -6 0 -16 13 -22 29 -10 26 -15
28 -59 26 -45 -2 -65 -15 -65 -42 0 -7 -6 -13 -14 -13 -10 0 -2 28 26 100 22
55 44 100 48 100 4 0 12 -6 17 -12z m143 -78 l0 -90 50 0 c28 0 50 -4 50 -10
0 -6 -27 -10 -60 -10 l-60 0 0 100 c0 60 4 100 10 100 6 0 10 -37 10 -90z
m380 53 c30 -38 27 -107 -5 -138 -20 -21 -34 -25 -80 -25 l-55 0 0 98 0 97 60
-3 c50 -3 63 -8 80 -29z m285 -30 c15 -38 32 -79 37 -93 9 -23 12 -18 44 60
19 46 39 89 46 95 12 11 14 15 -35 -113 -21 -55 -36 -82 -46 -80 -8 2 -31 46
-52 98 -44 106 -42 100 -30 100 5 0 21 -30 36 -67z m253 49 l-58 -3 0 -34 c0
-34 1 -35 40 -35 22 0 40 -4 40 -10 0 -5 -18 -10 -40 -10 -40 0 -40 0 -40 -37
l0 -38 51 4 c29 2 56 -2 62 -8 8 -8 -9 -11 -61 -11 l-72 0 0 98 0 97 67 -5 68
-5 -57 -3z m172 -162 c28 0 50 -4 50 -10 0 -6 -27 -10 -60 -10 l-60 0 0 93 c0
122 14 136 18 18 l3 -91 49 0z m239 154 c38 -32 49 -80 27 -122 -20 -38 -44
-52 -88 -52 -55 1 -88 40 -88 105 0 27 8 44 29 66 37 37 79 38 120 3z m599 4
c19 -16 15 -66 -8 -80 -19 -12 -19 -13 6 -55 19 -33 21 -43 10 -43 -8 0 -17 9
-21 19 -13 41 -43 69 -70 64 -22 -5 -25 -11 -25 -44 0 -25 -5 -39 -12 -39 -10
0 -12 25 -11 97 1 54 2 98 3 98 46 0 118 -10 128 -17z m312 -8 c28 -43 -3 -80
-66 -80 l-44 0 0 -45 c0 -25 -4 -45 -10 -45 -6 0 -10 39 -10 98 l0 98 61 -6
c37 -4 64 -12 69 -20z m80 -60 l0 -90 50 0 c28 0 50 -4 50 -10 0 -6 -27 -10
-60 -10 l-60 0 0 100 c0 60 4 100 10 100 6 0 10 -37 10 -90z m277 -10 c24 -59
35 -100 28 -100 -6 0 -15 12 -21 27 -8 24 -14 27 -58 28 -45 1 -50 -1 -60 -27
-6 -15 -16 -28 -22 -28 -10 0 45 151 69 188 16 23 24 11 64 -88z m326 82 l-53
-3 0 -35 c0 -32 2 -34 35 -34 19 0 35 -4 35 -10 0 -5 -16 -10 -35 -10 -35 0
-35 0 -35 -45 0 -29 -4 -45 -12 -45 -10 0 -12 25 -11 97 1 54 2 98 3 98 0 0
28 -2 62 -5 l63 -5 -52 -3z m217 3 c57 -29 68 -102 24 -154 -53 -63 -149 -30
-161 56 -5 39 -2 46 30 78 38 38 63 43 107 20z m376 -61 c20 -41 39 -72 42
-69 4 4 23 36 42 73 51 97 60 93 60 -27 0 -65 -4 -101 -11 -101 -6 0 -10 29
-9 78 1 42 1 82 0 87 0 6 -19 -28 -41 -75 l-41 -85 -43 85 -44 85 0 -87 c-1
-52 -5 -88 -11 -88 -11 0 -14 182 -3 193 15 15 25 3 59 -69z m734 26 c10 -25
27 -69 39 -97 12 -30 16 -53 10 -53 -5 0 -15 14 -20 30 -10 28 -14 30 -60 30
-47 0 -51 -2 -60 -30 -6 -16 -15 -30 -20 -30 -13 0 -12 1 22 87 52 133 60 138
89 63z m234 29 c14 -11 24 -25 21 -29 -3 -5 -15 0 -25 10 -45 45 -120 4 -120
-65 0 -72 73 -103 128 -52 18 17 22 18 22 4 0 -35 -75 -60 -125 -41 -23 9 -45
57 -45 99 0 27 8 44 29 66 35 35 77 38 115 8z m116 -41 l0 -63 46 53 c60 68
102 93 49 28 l-38 -47 20 -22 c40 -44 65 -87 51 -87 -7 0 -28 23 -47 51 l-34
50 -23 -22 c-14 -13 -24 -34 -24 -51 0 -15 -4 -28 -10 -28 -6 0 -10 40 -10
100 0 60 4 100 10 100 6 0 10 -28 10 -62z m301 43 c13 -11 20 -23 16 -28 -5
-4 -13 0 -18 10 -12 21 -71 23 -88 3 -19 -23 -2 -43 47 -56 56 -14 72 -26 72
-53 0 -35 -29 -57 -75 -57 -42 0 -88 31 -71 47 4 5 12 0 17 -9 21 -38 109 -29
109 11 0 25 -18 38 -63 46 -41 8 -69 38 -59 64 16 42 74 54 113 22z m369 -31
c10 -25 27 -69 39 -97 12 -30 16 -53 10 -53 -5 0 -15 14 -20 30 -10 28 -14 30
-60 30 -47 0 -51 -2 -60 -30 -6 -16 -15 -30 -20 -30 -5 0 -9 1 -9 3 0 3 34 90
66 165 17 43 32 38 54 -18z m228 34 c12 -8 22 -20 22 -25 0 -6 -10 -3 -22 5
-33 23 -75 20 -103 -9 -35 -34 -33 -78 4 -116 36 -35 64 -37 96 -4 36 35 32
53 -12 58 -36 3 -35 4 8 5 l47 2 -8 -35 c-12 -52 -27 -65 -75 -65 -82 0 -127
72 -91 146 24 52 89 70 134 38z m-4970 -1 l-58 -4 0 -34 c0 -35 0 -35 45 -35
25 0 45 -4 45 -10 0 -5 -20 -10 -45 -10 -45 0 -45 0 -45 -35 l0 -35 55 0 c30
0 55 -4 55 -10 0 -6 -28 -10 -65 -10 l-65 0 0 95 0 95 68 -2 67 -2 -57 -3z
m1016 -9 c39 -39 7 -84 -60 -84 l-44 0 0 -45 c0 -25 -4 -45 -10 -45 -6 0 -10
38 -10 95 l0 95 54 0 c36 0 60 -5 70 -16z m144 9 l-58 -4 0 -34 c0 -35 0 -35
45 -35 25 0 45 -4 45 -10 0 -5 -20 -10 -45 -10 -45 0 -45 0 -45 -35 l0 -35 54
0 c30 0 58 -4 61 -10 4 -6 -20 -10 -64 -10 l-71 0 0 95 0 95 68 -2 67 -2 -57
-3z m1080 0 l-38 -4 0 -90 c0 -115 -18 -117 -22 -1 l-3 87 -35 6 c-21 4 -2 6
50 6 47 0 68 -2 48 -4z m610 -5 c20 -20 14 -64 -10 -80 l-23 -15 28 -42 c21
-31 24 -41 12 -41 -8 0 -24 18 -35 40 -18 35 -25 40 -55 40 -34 0 -35 -1 -35
-40 0 -22 -4 -40 -10 -40 -6 0 -10 38 -10 95 l0 95 63 0 c36 0 68 -5 75 -12z
m684 -13 c9 -20 8 -28 -5 -43 -15 -17 -15 -19 3 -35 24 -21 25 -44 3 -69 -12
-14 -31 -18 -80 -18 l-63 0 0 95 0 95 65 0 c60 0 66 -2 77 -25z m1038 16 l-35
-6 0 -88 c0 -63 -3 -87 -12 -87 -10 0 -13 25 -13 91 l0 91 -30 -4 c-17 -3 -33
-1 -36 4 -3 4 32 7 78 7 56 -1 71 -4 48 -8z m578 2 l-58 -4 0 -34 c0 -34 1
-35 40 -35 22 0 40 -4 40 -10 0 -5 -18 -10 -40 -10 -39 0 -40 -1 -40 -35 l0
-35 54 0 c30 0 58 -4 61 -10 4 -6 -20 -10 -64 -10 l-71 0 0 95 0 95 68 -2 67
-2 -57 -3z m-5648 -510 c-571 -7 -1397 -7 -1387 -1 7 4 372 7 812 6 440 -2
699 -4 575 -5z m1953 0 c-233 -2 -613 -2 -845 0 -233 1 -43 2 422 2 465 0 655
-1 423 -2z m2140 0 c-233 -2 -613 -2 -845 0 -233 1 -43 2 422 2 465 0 655 -1
423 -2z m2474 -1 c6 -4 -350 -6 -790 -4 -441 1 -813 0 -826 -3 -13 -3 -38 -21
-54 -38 -22 -24 -27 -26 -18 -9 7 13 27 32 44 42 31 19 57 20 832 20 440 0
805 -4 812 -8z m-6288 -28 c17 -14 31 -31 31 -37 0 -7 -5 -4 -11 6 -6 10 -25
27 -42 38 -18 10 -27 19 -20 19 6 0 25 -12 42 -26z m-1689 13 c0 -2 -12 -14
-27 -28 l-28 -24 24 28 c23 25 31 32 31 24z m3850 -22 c13 -14 21 -25 18 -25
-2 0 -15 11 -28 25 -13 14 -21 25 -18 25 2 0 15 -11 28 -25z m321 -10 c-17
-20 -31 -41 -31 -47 0 -6 -3 -8 -6 -5 -8 7 22 56 45 74 27 21 24 15 -8 -22z
m1819 9 c0 -2 -9 0 -20 6 -11 6 -20 13 -20 16 0 2 9 0 20 -6 11 -6 20 -13 20
-16z m2046 -2 c-4 -3 -14 2 -24 12 -16 18 -16 18 6 6 13 -6 21 -14 18 -18z
m-6012 -7 c-9 -14 -18 -25 -21 -25 -5 0 5 18 20 38 17 22 18 13 1 -13z m6034
-30 c-3 -3 -9 2 -12 12 -6 14 -5 15 5 6 7 -7 10 -15 7 -18z m-8121 -37 c-3 -7
-5 -2 -5 12 0 14 2 19 5 13 2 -7 2 -19 0 -25z m3950 -881 c-1 -166 -2 -30 -2
303 0 333 1 469 2 303 2 -167 2 -439 0 -606z m2122 -305 c-9 -15 -10 -15 -5 1
3 10 7 287 8 615 l3 597 2 -598 c2 -417 0 -604 -8 -615z m2058 316 c-1 -167
-2 -33 -2 297 0 330 1 466 2 303 2 -163 2 -433 0 -600z m-6330 -5 c-1 -164 -2
-30 -2 297 0 327 1 461 2 298 2 -164 2 -432 0 -595z m250 0 c-1 -164 -2 -32
-2 292 0 325 1 459 2 298 2 -160 2 -426 0 -590z m2140 -1 c-1 -158 -2 -26 -2
293 0 319 1 448 2 287 2 -161 2 -422 0 -580z m2140 536 c-1 -62 -3 -14 -3 107
0 121 2 172 3 113 2 -59 2 -158 0 -220z m-3234 203 l37 -35 0 -142 c0 -120 -2
-143 -16 -148 -30 -12 -259 -7 -272 6 -8 8 -12 61 -12 173 0 112 4 165 12 173
7 7 44 12 95 12 74 0 82 2 76 18 -6 15 -4 15 18 -3 13 -10 41 -35 62 -54z
m2195 10 c16 -9 22 -21 22 -47 0 -43 -24 -54 -125 -59 -38 -1 -52 -1 -30 2 22
2 64 8 93 14 50 10 52 12 52 44 0 30 -3 33 -44 44 -25 6 -80 12 -123 13 -65 1
-70 2 -33 7 56 8 159 -2 188 -18z m-5291 -148 c-2 -32 -3 -6 -3 57 0 63 1 89
3 58 2 -32 2 -84 0 -115z m853 142 c10 -12 37 -15 121 -15 l109 0 0 -110 c0
-67 -4 -110 -10 -110 -6 0 -10 28 -10 65 l0 64 -170 3 -170 3 0 -93 0 -93 180
3 c139 2 180 0 180 -9 0 -10 -45 -13 -190 -13 l-190 0 0 110 0 110 180 0 180
0 0 25 0 25 -105 0 c-65 0 -105 4 -105 10 0 6 -11 16 -25 22 -22 10 -30 8 -55
-10 -30 -23 -70 -29 -70 -12 0 6 11 10 24 10 13 0 26 7 30 15 3 10 19 15 44
15 23 0 45 -6 52 -15z m6398 -1 c12 -8 22 -20 22 -26 0 -7 -6 -4 -13 5 -6 10
-26 21 -42 26 -21 7 -24 10 -10 10 11 1 31 -6 43 -15z m-120 -33 c-13 -15 -25
-27 -27 -25 -4 4 39 54 47 54 2 0 -7 -13 -20 -29z m-2068 -47 c38 -12 40 -14
11 -9 -40 6 -81 30 -81 47 0 7 6 4 13 -5 7 -10 32 -24 57 -33z m93 19 c-7 -2
-19 -2 -25 0 -7 3 -2 5 12 5 14 0 19 -2 13 -5z m1944 -45 c-3 -7 -5 -2 -5 12
0 14 2 19 5 13 2 -7 2 -19 0 -25z m-1797 -38 c-8 -5 -24 -9 -35 -9 -16 1 -16
2 5 9 35 11 48 11 30 0z m-227 -7 c-7 -2 -19 -2 -25 0 -7 3 -2 5 12 5 14 0 19
-2 13 -5z m2348 -29 c9 -11 2 -9 -18 6 -18 13 -33 25 -33 27 0 8 38 -17 51
-33z m-2213 19 c-21 -2 -55 -2 -75 0 -21 2 -4 4 37 4 41 0 58 -2 38 -4z m2092
-5 c-8 -7 -20 -20 -28 -28 -11 -13 -12 -12 -3 7 9 18 23 29 41 32 2 1 -2 -5
-10 -11z m-1993 -42 c-18 -46 -270 -46 -308 0 -8 10 -2 9 22 -3 43 -22 164
-29 228 -13 45 11 51 15 52 38 1 18 3 21 6 9 3 -10 2 -24 0 -31z m-5310 -143
c-2 -27 -3 -5 -3 47 0 52 1 74 3 48 2 -27 2 -69 0 -95z m7263 125 c0 -5 -38
-8 -84 -8 -102 0 -116 -4 -117 -39 -2 -26 -2 -26 -6 -2 -8 41 24 56 122 56 47
0 85 -3 85 -7z m53 -77 c-4 -6 -53 41 -53 50 0 4 13 -4 28 -19 15 -15 26 -29
25 -31z m92 21 l-28 -27 24 31 c13 17 26 30 28 27 3 -2 -8 -16 -24 -31z
m-2372 -47 c18 -8 27 -14 20 -15 -7 0 -24 5 -38 12 -20 9 -25 18 -23 47 l1 36
4 -33 c3 -26 11 -37 36 -47z m274 33 c-3 -7 -5 -2 -5 12 0 14 2 19 5 13 2 -7
2 -19 0 -25z m-119 5 c-21 -2 -55 -2 -75 0 -21 2 -4 4 37 4 41 0 58 -2 38 -4z
m1949 -9 c-3 -3 -12 -4 -19 -1 -8 3 -5 6 6 6 11 1 17 -2 13 -5z m220 -10 c-3
-3 -12 -4 -19 -1 -8 3 -5 6 6 6 11 1 17 -2 13 -5z m-2057 -10 c0 -17 -77 -34
-152 -32 l-83 1 95 6 c52 4 104 12 115 18 23 14 25 15 25 7z m1027 -56 c-2
-13 -4 -5 -4 17 -1 22 1 32 4 23 2 -10 2 -28 0 -40z m-6330 -50 c-3 -8 -6 -5
-6 6 -1 11 2 17 5 13 3 -3 4 -12 1 -19z m6330 -165 c-2 -32 -3 -8 -3 52 0 61
1 87 3 58 2 -29 2 -78 0 -110z m-6330 65 c-2 -18 -4 -6 -4 27 0 33 2 48 4 33
2 -15 2 -42 0 -60z m835 55 c27 -24 10 -36 -19 -13 -35 27 -67 25 -92 -6 -29
-37 -27 -89 4 -119 29 -30 68 -32 95 -5 31 31 26 50 -15 50 -19 0 -35 5 -35
11 0 6 17 9 43 7 39 -3 42 -5 40 -32 -4 -55 -56 -84 -115 -64 -72 25 -77 150
-8 185 29 15 77 8 102 -14z m1731 0 c24 -22 13 -29 -15 -9 -28 20 -62 21 -78
1 -20 -24 -5 -41 43 -54 72 -18 96 -54 60 -93 -23 -26 -94 -25 -118 2 -25 27
-12 37 14 11 24 -24 59 -27 85 -8 31 23 15 49 -42 72 -30 11 -58 27 -63 37
-29 53 63 86 114 41z m287 17 c0 -5 -8 -10 -19 -10 -10 0 -21 -9 -24 -20 -4
-17 0 -20 29 -20 30 0 34 3 34 25 0 14 5 25 10 25 6 0 10 -11 10 -25 0 -18 5
-25 20 -25 11 0 20 -4 20 -10 0 -5 -9 -10 -20 -10 -18 0 -20 -7 -20 -54 0 -49
3 -55 23 -59 15 -4 12 -5 -8 -4 -29 2 -30 3 -33 60 -3 56 -4 57 -32 57 -28 0
-30 -3 -32 -37 0 -21 0 -48 1 -60 1 -13 -3 -23 -9 -23 -6 0 -10 25 -10 59 0
38 -5 61 -12 65 -10 5 -10 7 0 12 6 3 12 13 12 23 0 9 5 22 12 29 15 15 48 16
48 2z m-1930 -15 c0 -8 -4 -15 -10 -15 -5 0 -10 7 -10 15 0 8 5 15 10 15 6 0
10 -7 10 -15z m70 -10 c0 -18 5 -25 19 -25 11 0 23 -4 26 -10 4 -6 -5 -10 -20
-10 -25 0 -26 -2 -23 -52 3 -46 6 -53 28 -58 18 -4 21 -8 10 -12 -8 -3 -25 -2
-37 3 -20 7 -23 15 -23 63 0 34 -5 57 -12 60 -10 5 -10 7 0 12 6 3 12 17 12
30 0 13 5 24 10 24 6 0 10 -11 10 -25z m-70 -95 c0 -40 -4 -70 -10 -70 -6 0
-10 30 -10 70 0 40 4 70 10 70 6 0 10 -30 10 -70z m1784 58 c50 -22 40 -126
-12 -129 -52 -4 -72 13 -74 66 -1 29 4 43 21 57 27 21 32 22 65 6z m281 -36
c11 -67 21 -69 39 -7 10 31 20 54 24 51 3 -4 14 -30 22 -59 l17 -52 18 58 c10
31 23 57 28 57 5 0 7 -6 4 -12 -2 -7 -13 -39 -23 -71 -10 -31 -22 -56 -28 -54
-5 2 -17 25 -26 53 l-17 49 -13 -52 c-8 -29 -19 -53 -25 -53 -10 0 -45 101
-45 130 0 26 19 -3 25 -38z m265 28 c15 -15 20 -33 20 -70 0 -27 -4 -50 -10
-50 -5 0 -10 5 -10 11 0 8 -4 8 -14 0 -24 -20 -70 -10 -74 17 -5 33 15 52 55
52 27 0 34 4 31 18 -4 20 -45 29 -61 13 -14 -14 -27 -14 -27 -1 0 11 35 28 58
29 6 1 21 -8 32 -19z m89 -4 c1 13 31 28 39 19 3 -2 -7 -14 -21 -26 -22 -17
-27 -29 -27 -65 0 -24 -5 -44 -10 -44 -6 0 -10 25 -9 63 3 70 9 90 20 61 4
-10 8 -14 8 -8z m151 4 c11 -11 20 -29 20 -40 0 -17 -7 -20 -50 -20 -54 0 -55
-1 -40 -31 11 -20 54 -26 65 -9 3 6 11 10 17 10 7 0 6 -6 -2 -15 -20 -25 -77
-19 -96 10 -20 31 -11 79 19 100 29 20 43 19 67 -5z m-3493 -387 c-1 -60 -3
-11 -3 107 0 118 2 167 3 108 2 -60 2 -156 0 -215z m4718 297 c4 -6 -8 -10
-29 -10 l-36 0 0 -92 c0 -50 -3 -88 -6 -85 -4 4 -6 45 -5 92 l2 85 -35 0 c-20
0 -36 5 -36 10 0 6 30 10 69 10 39 0 73 -4 76 -10z m305 -25 c0 -32 2 -34 23
-26 24 9 48 4 59 -13 11 -17 9 -116 -2 -116 -5 0 -10 25 -10 55 0 42 -4 57
-16 62 -31 12 -49 -11 -52 -66 -5 -89 -22 -56 -22 44 0 57 4 95 10 95 6 0 10
-16 10 -35z m263 15 c32 -25 42 -69 27 -115 -14 -44 -35 -55 -99 -55 l-51 0 0
95 0 95 49 0 c33 0 56 -6 74 -20z m1598 10 c13 -7 19 -21 19 -45 0 -39 -20
-55 -69 -55 -29 0 -31 -2 -31 -40 0 -22 -4 -40 -10 -40 -6 0 -10 38 -10 95 l0
95 41 0 c22 0 49 -5 60 -10z m76 -132 c-2 -29 -3 -8 -3 47 0 55 1 79 3 53 2
-26 2 -71 0 -100z m383 127 c0 -8 -4 -15 -10 -15 -5 0 -10 7 -10 15 0 8 5 15
10 15 6 0 10 -7 10 -15z m-1622 -47 c19 -19 14 -30 -7 -17 -21 14 -55 5 -49
-13 2 -6 20 -17 39 -23 37 -13 52 -50 27 -66 -19 -13 -62 -11 -76 3 -19 19
-14 33 6 15 22 -20 46 -22 61 -4 13 16 -4 37 -30 37 -18 0 -49 25 -49 40 0 15
31 40 49 40 9 0 22 -5 29 -12z m1322 -59 c0 -55 2 -59 23 -59 35 0 47 19 47
72 0 26 5 48 10 48 6 0 10 -28 10 -65 0 -37 -4 -65 -10 -65 -5 0 -10 5 -10 11
0 8 -4 8 -14 0 -8 -7 -27 -11 -43 -9 -27 3 -28 5 -31 71 -2 46 1 67 8 62 5 -3
10 -33 10 -66z m240 -14 c0 -73 -3 -88 -21 -106 -21 -21 -61 -20 -83 2 -15 14
2 23 18 10 23 -20 60 -10 64 17 3 20 0 22 -20 17 -38 -10 -72 24 -71 69 1 52
19 69 65 63 21 -3 38 -1 38 4 0 5 2 9 5 9 3 0 5 -38 5 -85z m146 76 c46 17 64
-3 64 -71 0 -33 -4 -60 -10 -60 -6 0 -10 27 -10 60 0 56 -2 60 -23 60 -35 0
-47 -19 -47 -72 0 -26 -4 -48 -8 -48 -4 0 -7 30 -5 68 3 79 3 81 9 65 4 -9 13
-9 30 -2z m190 -5 c24 -18 13 -31 -14 -15 -22 14 -56 5 -50 -14 3 -6 19 -17
37 -23 40 -13 58 -39 41 -60 -16 -18 -74 -18 -90 1 -14 17 0 21 17 4 16 -16
57 -7 61 13 2 12 -7 20 -36 28 -49 13 -62 38 -32 62 27 22 40 22 66 4z m-2806
-15 c5 -11 10 -29 10 -40 0 -18 -6 -21 -50 -21 -51 0 -60 -6 -38 -28 15 -15
51 -15 66 0 6 6 14 9 18 6 3 -4 -5 -14 -19 -23 -66 -43 -126 48 -75 113 17 20
76 15 88 -7z m150 4 c7 -9 10 -19 6 -23 -4 -4 -14 1 -21 12 -10 13 -21 17 -39
12 -51 -13 -43 -106 8 -106 14 0 29 8 35 17 5 10 13 14 18 10 9 -10 -33 -47
-54 -47 -7 0 -25 12 -40 26 -20 20 -24 31 -19 56 3 17 11 37 17 45 15 18 74
17 89 -2z m495 -9 c23 -34 15 -75 -18 -100 -26 -19 -30 -19 -55 -5 -22 12 -28
23 -30 58 -4 52 10 71 54 71 25 0 38 -7 49 -24z m143 12 c19 -19 14 -33 -6
-15 -36 33 -72 14 -72 -38 0 -52 47 -75 76 -37 13 16 13 16 14 -1 0 -39 -89
-41 -104 -2 -9 25 -7 64 4 86 12 22 68 27 88 7z m1742 -59 c0 -44 -4 -68 -10
-64 -5 3 -10 35 -10 71 0 36 4 64 10 64 6 0 10 -30 10 -71z m-1013 -6 c-3 -10
-5 -4 -5 12 0 17 2 24 5 18 2 -7 2 -21 0 -30z m-6027 -23 c26 -26 25 -46 -5
-74 l-24 -23 24 -36 c26 -38 30 -47 18 -47 -5 0 -21 20 -36 45 -21 33 -35 45
-53 45 -22 0 -24 -4 -24 -46 0 -27 -4 -43 -10 -39 -6 3 -10 48 -10 101 l0 94
50 0 c37 0 55 -5 70 -20z m650 6 c0 -8 -4 -18 -10 -21 -5 -3 -10 3 -10 14 0
12 5 21 10 21 6 0 10 -6 10 -14z m1565 4 c4 -6 -7 -10 -24 -10 l-31 0 0 -90
c0 -53 -4 -90 -10 -90 -6 0 -10 37 -10 90 l0 90 -30 0 c-16 0 -30 5 -30 10 0
6 28 10 64 10 36 0 68 -4 71 -10z m555 -90 c0 -60 -4 -100 -10 -100 -6 0 -10
40 -10 100 0 60 4 100 10 100 6 0 10 -40 10 -100z m-2050 65 c0 -19 5 -25 23
-26 21 -1 21 -1 -3 -8 -22 -6 -25 -12 -25 -56 0 -44 3 -50 23 -53 27 -4 20
-22 -9 -22 -24 0 -38 34 -32 78 4 25 1 37 -13 47 -18 13 -18 14 -1 15 11 0 17
8 17 25 0 14 5 25 10 25 6 0 10 -11 10 -25z m320 10 c0 -8 -4 -15 -10 -15 -5
0 -10 7 -10 15 0 8 5 15 10 15 6 0 10 -7 10 -15z m1950 -10 c0 -19 6 -25 23
-26 l22 -2 -22 -4 c-21 -4 -23 -10 -23 -59 0 -47 2 -54 20 -54 11 0 20 -5 20
-11 0 -6 -12 -9 -27 -7 -26 3 -28 6 -31 58 -2 30 -9 58 -15 63 -9 7 -9 10 1
14 6 2 12 16 12 29 0 13 5 24 10 24 6 0 10 -11 10 -25z m-2840 -44 c5 -11 10
-29 10 -40 0 -18 -6 -21 -50 -21 -48 0 -50 -1 -40 -20 12 -23 59 -27 78 -8 7
7 12 8 12 2 0 -18 -23 -34 -49 -34 -36 0 -61 28 -61 67 0 53 15 73 55 73 24 0
38 -6 45 -19z m79 11 c27 17 70 1 82 -29 22 -59 -24 -116 -80 -98 -16 5 -20 1
-24 -27 -2 -18 -4 12 -5 67 0 55 2 95 5 88 3 -9 9 -9 22 -1z m225 -14 c48 -69
-26 -156 -86 -101 -23 20 -24 80 -1 105 23 25 68 23 87 -4z m136 7 c14 -17 7
-19 -20 -5 -10 5 -26 7 -35 4 -26 -10 -13 -36 25 -48 53 -17 50 -76 -4 -76
-28 0 -64 26 -52 37 5 4 11 2 13 -4 3 -7 18 -13 34 -13 41 0 40 33 -3 45 -40
13 -57 38 -39 59 17 20 65 21 81 1z m60 -55 c0 -40 -4 -70 -10 -70 -6 0 -10
30 -10 70 0 40 4 70 10 70 6 0 10 -30 10 -70z m222 53 c23 -20 24 -85 2 -107
-23 -24 -70 -20 -88 6 -48 69 26 156 86 101z m78 5 c0 -9 3 -9 12 0 14 14 38
16 38 3 0 -5 -10 -11 -22 -13 -20 -3 -23 -10 -26 -60 -4 -82 -22 -72 -22 12 0
40 4 70 10 70 6 0 10 -5 10 -12z m89 -63 c1 -40 -2 -65 -8 -65 -7 0 -11 28
-11 71 0 88 16 83 19 -6z m128 63 c6 -7 13 -25 17 -40 6 -28 6 -28 -45 -28
-43 0 -50 -3 -47 -17 4 -22 53 -30 74 -12 17 14 19 -2 2 -19 -17 -17 -58 -15
-80 5 -23 20 -24 80 -1 105 18 21 66 24 80 6z m143 2 c8 -5 12 -12 8 -15 -3
-4 -15 -1 -26 6 -17 10 -23 10 -36 0 -25 -21 -19 -29 23 -41 65 -17 65 -80 0
-80 -27 0 -66 27 -54 38 3 3 11 0 17 -6 7 -7 25 -12 41 -12 40 0 32 30 -11 44
-40 14 -54 33 -41 58 10 19 54 24 79 8z m1004 -12 c30 -43 21 -58 -34 -58 -27
0 -50 -2 -50 -4 0 -34 52 -50 78 -24 7 7 12 8 12 2 0 -37 -70 -46 -94 -12 -34
49 -8 118 44 118 18 0 34 -8 44 -22z m60 10 c-6 -10 -5 -10 7 -1 8 7 43 11 84
10 l70 -2 3 -70 c2 -38 0 -66 -3 -63 -4 4 -8 29 -9 57 -2 60 -15 78 -45 62
-17 -10 -21 -21 -21 -66 0 -30 -4 -55 -10 -55 -6 0 -10 26 -10 59 0 65 -9 78
-40 61 -16 -9 -20 -21 -20 -65 0 -30 -4 -55 -10 -55 -6 0 -10 30 -10 70 0 43
4 70 11 70 5 0 7 -6 3 -12z m250 1 c11 17 62 13 77 -5 7 -9 14 -34 14 -56 0
-49 -25 -72 -72 -64 -30 4 -32 2 -36 -27 -2 -18 -4 13 -5 68 -1 59 2 94 7 86
6 -9 11 -10 15 -2z m274 -1 c7 -7 12 -38 12 -71 0 -50 -2 -58 -14 -48 -10 8
-16 9 -21 1 -12 -20 -55 -11 -67 15 -9 21 -8 28 7 45 10 11 31 20 47 20 18 0
28 5 28 14 0 20 -38 30 -56 15 -16 -13 -30 -6 -19 10 9 15 68 14 83 -1z m250
-1 c6 -6 13 -24 17 -40 7 -27 7 -27 -44 -27 -28 0 -51 -2 -51 -4 0 -34 52 -50
78 -24 9 9 12 8 12 -4 0 -34 -72 -38 -94 -6 -34 48 -8 118 43 118 16 0 33 -6
39 -13z m142 -2 c15 -18 7 -19 -19 -3 -10 6 -26 8 -35 5 -27 -11 -15 -41 18
-47 57 -10 61 -71 5 -78 -27 -3 -68 22 -56 34 4 5 12 3 16 -5 11 -17 66 -10
66 8 0 8 -15 19 -34 26 -44 14 -60 37 -42 59 17 20 65 21 81 1z m2747 -222
c-3 -10 -5 -4 -5 12 0 17 2 24 5 18 2 -7 2 -21 0 -30z m-6340 -5 c-3 -8 -6 -5
-6 6 -1 11 2 17 5 13 3 -3 4 -12 1 -19z m4217 -28 c10 -13 9 -13 -6 -1 -10 7
-18 21 -17 30 0 13 1 14 6 1 3 -8 11 -22 17 -30z m-2438 -4 c-9 -14 -26 -31
-38 -37 -16 -9 -13 -3 10 18 17 17 32 37 32 44 0 7 3 9 6 6 4 -4 -1 -18 -10
-31z m323 -24 c22 -20 22 -22 4 -13 -24 12 -53 49 -53 66 0 5 5 1 11 -10 6
-11 23 -31 38 -43z m6021 49 c0 -14 -50 -71 -62 -71 -6 0 1 9 15 20 14 11 29
29 32 40 7 21 15 27 15 11z m-4205 -41 c-16 -17 -32 -30 -36 -30 -4 0 7 15 24
33 18 18 34 31 36 30 3 -2 -8 -17 -24 -33z m-3861 -20 c16 -13 140 -16 825
-20 l806 -5 -795 -3 c-740 -2 -797 -1 -829 16 -19 9 -41 28 -49 42 -14 25 -14
25 4 5 11 -12 28 -27 38 -35z m6350 -8 c-5 -7 -41 22 -54 42 -10 15 -4 13 22
-9 19 -17 34 -31 32 -33z m-372 18 c-18 -17 -38 -30 -45 -30 -6 0 2 9 19 19
18 11 35 24 38 30 4 6 10 11 14 11 4 0 -8 -14 -26 -30z m-1772 -16 c0 -2 -9 0
-20 6 -11 6 -20 13 -20 16 0 2 9 0 20 -6 11 -6 20 -13 20 -16z m-615 -17 c105
-1 -186 -3 -645 -4 -459 -1 -843 1 -852 5 -16 6 1040 6 1497 -1z m2802 7 c-3
-3 -12 -4 -19 -1 -8 3 -5 6 6 6 11 1 17 -2 13 -5z m1583 -4 c-9 -6 -304 -9
-795 -7 l-780 2 785 5 c432 3 790 6 795 7 6 2 3 -2 -5 -7z m-2482 -7 c-230 -2
-606 -2 -835 0 -230 1 -42 2 417 2 459 0 647 -1 418 -2z m-5774 -159 c3 -8 2
-12 -4 -9 -6 3 -10 10 -10 16 0 14 7 11 14 -7z m66 -71 c0 -8 -38 17 -51 33
-9 11 -2 9 19 -6 17 -13 32 -25 32 -27z m8500 31 c-8 -8 -23 -20 -34 -25 -13
-7 -9 -1 9 15 34 29 43 33 25 10z m-8427 -51 c-7 -2 -19 -2 -25 0 -7 3 -2 5
12 5 14 0 19 -2 13 -5z m125 0 c-10 -2 -28 -2 -40 0 -13 2 -5 4 17 4 22 1 32
-1 23 -4z m6160 0 c-1127 -2 -2969 -2 -4095 0 -1127 1 -205 2 2047 2 2252 0
3174 -1 2048 -2z m498 -268 c0 -113 1 -205 4 -204 3 0 24 27 48 60 24 32 48
59 54 59 7 0 7 -4 1 -12 -6 -7 -32 -42 -58 -78 -27 -36 -51 -67 -53 -70 -2 -3
-12 6 -21 20 -9 14 -35 48 -58 77 -44 54 -49 63 -34 63 4 0 28 -27 52 -60 l44
-61 3 211 c1 116 6 209 11 206 4 -3 8 -98 7 -211z m-5258 0 c-2 -113 -1 -205
2 -205 3 1 25 28 50 61 24 33 46 56 48 50 3 -10 -98 -150 -110 -150 -12 -1
-129 147 -120 153 5 3 31 -24 58 -60 l49 -66 3 211 c1 135 6 211 13 211 6 0 9
-70 7 -205z m2680 -152 c23 31 47 57 52 57 6 0 -15 -34 -47 -75 -31 -41 -59
-75 -63 -75 -9 0 -109 126 -117 147 -11 29 13 6 61 -58 25 -34 46 -57 46 -52
0 21 9 285 11 348 2 39 6 -24 9 -139 l5 -210 43 57z m2024 -240 c-1150 -2
-3034 -2 -4185 0 -1150 1 -209 2 2093 2 2302 0 3243 -1 2092 -2z m-6283 -7
c-2 -2 -15 -9 -29 -15 -24 -11 -24 -11 -6 3 16 13 49 24 35 12z m8441 -18 c18
-13 40 -34 48 -48 11 -20 10 -19 -9 4 -12 16 -41 37 -63 47 -23 10 -34 19 -25
19 9 0 31 -10 49 -22z m-8530 -57 c-15 -29 -14 -2215 1 -2244 6 -12 21 -33 33
-47 l21 -25 -24 20 c-54 46 -52 -13 -51 1176 0 1034 3 1139 26 1139 2 0 0 -9
-6 -19z m8609 -1134 c1 -1054 1 -1079 -19 -1116 -19 -39 -63 -81 -84 -81 -6 0
5 11 25 24 74 51 70 -27 67 1193 -2 601 0 1085 4 1075 4 -9 7 -502 7 -1095z
m-8181 927 c50 -35 12 -94 -60 -94 l-38 0 0 -45 c0 -25 -4 -45 -10 -45 -11 0
-14 182 -3 193 12 13 89 7 111 -9z m88 -79 l-1 -85 48 0 c26 0 47 -4 47 -10 0
-5 -25 -10 -55 -10 l-55 0 0 101 c0 55 4 98 8 95 5 -3 8 -44 8 -91z m286 -5
c43 -105 41 -100 29 -100 -5 0 -14 14 -20 30 -9 28 -13 30 -61 30 -48 0 -52
-2 -61 -30 -6 -16 -15 -30 -20 -30 -5 0 -9 1 -9 3 0 3 34 90 66 165 7 19 19
32 26 30 7 -3 29 -46 50 -98z m198 90 c0 -5 -16 -10 -35 -10 l-35 0 0 -90 c0
-53 -4 -90 -10 -90 -6 0 -10 37 -10 90 l0 90 -30 0 c-16 0 -30 5 -30 10 0 6
32 10 75 10 43 0 75 -4 75 -10z m170 0 c0 -5 -22 -10 -50 -10 l-50 0 0 -35 c0
-34 1 -35 40 -35 22 0 40 -4 40 -10 0 -5 -18 -10 -40 -10 l-40 0 0 -45 c0 -25
-4 -45 -10 -45 -6 0 -10 40 -10 100 l0 100 60 0 c33 0 60 -4 60 -10z m191 -19
c61 -62 20 -171 -64 -171 -64 0 -109 69 -87 136 23 69 99 87 151 35z m207 13
c28 -20 28 -58 0 -79 -24 -16 -25 -14 20 -82 9 -15 10 -23 3 -23 -6 0 -24 20
-39 45 -23 39 -32 45 -59 45 -32 0 -33 -1 -33 -45 0 -25 -4 -45 -10 -45 -11 0
-14 182 -3 193 13 13 99 7 121 -9z m147 -54 c19 -38 37 -70 40 -70 3 0 21 32
40 70 51 101 65 95 65 -30 0 -124 -18 -134 -22 -12 l-3 87 -38 -72 c-20 -40
-41 -73 -45 -73 -4 0 -24 33 -44 73 l-37 72 0 -87 c-1 -52 -5 -88 -11 -88 -6
0 -10 40 -10 100 0 125 14 131 65 30z m436 50 c29 -24 14 -26 -30 -4 -29 15
-34 14 -57 -1 -40 -26 -27 -43 56 -67 40 -11 45 -17 48 -45 4 -38 -26 -63 -74
-63 -33 0 -84 33 -72 46 5 4 16 0 26 -9 27 -25 88 -22 102 4 14 25 1 44 -38
53 -64 15 -82 28 -82 57 0 16 7 32 18 38 28 17 78 12 103 -9z m219 10 c0 -5
-25 -10 -55 -10 l-55 0 0 -35 c0 -34 1 -35 40 -35 22 0 40 -4 40 -9 0 -4 -17
-8 -37 -7 -37 1 -38 0 -41 -36 l-3 -38 55 0 c31 0 56 -4 56 -10 0 -6 -28 -10
-65 -10 l-65 0 0 100 0 100 65 0 c37 0 65 -4 65 -10z m170 -3 c36 -18 39 -61
5 -83 -22 -14 -24 -19 -12 -33 31 -37 48 -71 35 -71 -7 0 -25 21 -40 45 -23
37 -32 45 -58 45 -29 0 -30 -2 -30 -45 0 -25 -4 -45 -10 -45 -6 0 -10 40 -10
100 l0 100 48 0 c26 0 58 -6 72 -13z m105 -70 c17 -42 33 -79 37 -82 3 -4 21
32 39 79 18 47 37 86 42 86 5 0 7 -4 5 -8 -1 -4 -19 -49 -38 -100 -19 -50 -40
-92 -45 -92 -6 0 -29 45 -52 101 -23 55 -37 99 -30 96 6 -2 25 -38 42 -80z
m195 -17 c0 -60 -4 -100 -10 -100 -6 0 -10 40 -10 100 0 60 4 100 10 100 6 0
10 -40 10 -100z m207 75 c21 -18 24 -24 12 -25 -9 0 -22 7 -29 16 -9 10 -26
14 -49 12 -30 -3 -39 -9 -54 -39 -14 -29 -15 -42 -6 -68 19 -53 81 -69 120
-30 11 11 24 18 27 14 11 -11 -47 -55 -73 -55 -69 0 -114 61 -95 130 19 71 92
93 147 45z m208 15 c4 -6 -17 -10 -54 -10 l-61 0 0 -35 c0 -35 0 -35 47 -35
54 0 50 -14 -5 -15 -35 -1 -37 -3 -40 -38 l-3 -37 60 0 c34 0 61 -4 61 -10 0
-6 -30 -10 -70 -10 l-70 0 0 100 0 100 64 0 c36 0 68 -4 71 -10z m170 -10 c22
-24 18 -25 -22 -5 -41 20 -86 5 -81 -27 2 -17 14 -25 51 -34 56 -14 77 -29 77
-55 0 -53 -97 -81 -135 -39 -10 11 -15 23 -11 27 4 5 12 0 17 -10 13 -22 81
-23 100 -1 19 23 0 47 -48 59 -70 17 -90 49 -56 87 22 25 84 24 108 -2z
m-1480 -456 c19 -9 41 -28 51 -42 14 -23 11 -22 -20 8 l-37 35 -819 0 c-450 0
-813 3 -807 7 7 4 369 8 805 8 704 0 798 -2 827 -16z m2149 2 c33 -14 76 -59
76 -80 0 -6 -9 3 -19 20 -41 67 1 64 -931 64 -916 0 -873 3 -919 -56 -12 -15
-21 -22 -21 -17 0 11 47 56 75 71 14 8 268 11 863 12 694 0 848 -2 876 -14z
m2123 6 c6 -4 -377 -7 -852 -7 -475 0 -858 3 -852 7 7 4 390 8 852 8 462 0
845 -4 852 -8z m2059 -8 c19 -9 44 -31 57 -48 l22 -31 3 -623 c2 -568 1 -626
-14 -659 -19 -38 -67 -73 -99 -72 -16 1 -15 2 6 8 46 15 66 30 83 65 14 30 16
101 16 648 0 575 -1 615 -18 647 -10 19 -34 43 -53 53 -32 17 -78 18 -822 18
-860 0 -819 3 -867 -57 -19 -24 -20 -25 -8 -3 8 14 30 35 48 48 l33 22 789 0
c708 0 794 -2 824 -16z m-8013 -34 c-15 -16 -30 -30 -32 -30 -5 0 21 33 38 48
26 22 24 13 -6 -18z m6033 -32 c12 -22 14 -137 14 -657 l0 -631 -31 -32 -31
-33 26 33 26 34 0 629 c0 657 1 647 -44 699 l-21 25 24 -20 c12 -11 29 -32 37
-47z m-1850 14 c-17 -16 -18 -16 -5 5 7 12 15 20 18 17 3 -2 -3 -12 -13 -22z
m-4219 -54 c-3 -7 -5 -2 -5 12 0 14 2 19 5 13 2 -7 2 -19 0 -25z m4200 10 c-3
-8 -6 -5 -6 6 -1 11 2 17 5 13 3 -3 4 -12 1 -19z m-2134 -1268 c5 -8 1 -6 -7
4 -14 18 -16 89 -14 650 l3 631 5 -635 c3 -349 9 -642 13 -650z m4277 648 c0
-347 -2 -629 -5 -626 -3 2 -5 231 -5 509 -1 683 -1 749 5 749 3 0 5 -284 5
-632z m-4543 -316 c-1 -169 -2 -28 -2 313 0 341 1 479 2 307 2 -172 2 -451 0
-620z m2150 0 c-1 -169 -2 -28 -2 313 0 341 1 479 2 307 2 -172 2 -451 0 -620z
m240 11 c-1 -169 -2 -33 -2 302 0 336 1 474 2 308 2 -166 2 -440 0 -610z
m-4187 280 c0 -339 -2 -614 -5 -612 -7 8 -10 1229 -2 1229 4 0 7 -277 7 -617z
m5235 479 l90 -47 3 -112 3 -112 -73 -47 c-117 -76 -110 -75 -216 -10 l-92 57
0 109 c0 103 1 110 23 124 30 19 161 86 167 86 3 -1 46 -22 95 -48z m2100 29
c-17 -15 -95 -18 -95 -4 0 9 16 13 52 13 31 0 48 -4 43 -9z m-6455 -26 c22
-24 30 -25 127 -25 l103 0 0 -150 0 -150 -220 0 -220 0 0 110 0 110 210 0 210
0 0 35 0 35 -103 0 c-91 0 -106 2 -122 20 -28 31 -106 28 -151 -6 -39 -30 -44
-24 -11 16 20 26 28 29 88 29 57 1 68 -2 89 -24z m2238 -38 l21 -37 -23 6
c-18 4 -29 -1 -45 -22 -12 -15 -23 -25 -26 -22 -3 3 4 13 15 23 28 26 25 39
-13 53 -142 51 -250 -65 -183 -198 8 -17 11 -30 7 -30 -12 0 -31 49 -37 94
-14 115 117 194 228 137 l37 -18 -6 31 c-7 36 -4 34 25 -17z m4232 4 c0 -5
-32 -39 -72 -75 l-72 -65 -35 21 c-20 12 -43 26 -52 31 -11 7 -28 2 -58 -18
-29 -18 -47 -23 -53 -17 -7 7 4 19 32 37 62 39 65 39 120 9 l51 -28 57 57 c53
53 82 70 82 48z m-4211 -221 c-31 -54 -94 -85 -152 -75 -69 11 -131 12 -146 1
-11 -9 -12 -6 -6 14 10 33 25 49 25 27 0 -9 3 -17 8 -17 11 1 77 92 78 109 2
34 5 39 24 44 10 3 24 0 29 -7 11 -14 3 -56 -10 -56 -5 0 -7 11 -3 25 5 19 2
25 -10 25 -11 0 -16 -9 -16 -28 0 -19 -11 -38 -31 -58 -17 -16 -35 -38 -41
-48 -9 -16 -7 -18 12 -13 12 3 45 1 74 -5 46 -10 57 -9 92 8 55 27 84 74 86
143 l2 56 3 -53 c3 -40 -1 -61 -18 -92z m4010 16 c48 -25 48 -25 79 -6 25 15
32 17 32 6 0 -8 -16 -24 -35 -36 l-35 -21 -42 25 c-39 23 -43 24 -70 10 -16
-8 -37 -14 -46 -12 -12 3 -6 11 23 30 22 15 41 27 43 27 1 1 24 -10 51 -23z
m90 -82 c68 -14 24 -24 -104 -24 -113 0 -135 2 -135 15 0 12 18 15 104 15 57
0 118 -3 135 -6z m-6374 -194 c10 -11 13 -20 8 -20 -6 0 -16 7 -23 15 -18 21
-66 19 -90 -5 -45 -45 -13 -130 49 -130 32 0 61 22 61 46 0 8 -10 14 -25 14
-14 0 -25 5 -25 10 0 16 60 12 66 -4 9 -24 -19 -69 -48 -77 -45 -12 -81 3
-102 42 -22 40 -17 78 14 109 27 27 91 27 115 0z m75 10 c0 -5 -4 -10 -10 -10
-5 0 -10 5 -10 10 0 6 5 10 10 10 6 0 10 -4 10 -10z m77 -10 c-4 -15 0 -20 14
-20 10 0 19 -4 19 -10 0 -5 -8 -10 -17 -10 -15 0 -17 -8 -15 -50 3 -38 8 -50
20 -50 12 0 13 -3 4 -12 -21 -21 -42 10 -42 62 0 29 -5 51 -12 54 -10 5 -10 7
0 12 6 3 12 14 12 25 0 10 5 19 11 19 6 0 9 -9 6 -20z m3653 -2 c25 -27 17
-38 -10 -13 -24 22 -66 23 -87 2 -8 -8 -18 -35 -20 -60 -5 -39 -2 -49 20 -71
32 -31 56 -33 91 -5 29 23 35 15 9 -13 -24 -27 -84 -24 -112 6 -43 45 -34 136
16 165 30 17 71 12 93 -11z m640 -9 c0 -5 -4 -9 -10 -9 -5 0 -10 7 -10 16 0 8
5 12 10 9 6 -3 10 -10 10 -16z m-238 -11 c2 -16 9 -22 21 -20 9 2 17 -2 17 -8
0 -5 -9 -10 -20 -10 -18 0 -20 -7 -20 -54 0 -52 1 -55 28 -59 20 -4 18 -4 -8
-3 l-35 1 -3 55 c-2 30 -9 58 -15 63 -9 7 -9 10 1 14 6 2 12 13 12 24 0 27 18
24 22 -3z m-4132 -68 c0 -33 -4 -60 -10 -60 -6 0 -10 27 -10 60 0 33 4 60 10
60 6 0 10 -27 10 -60z m4031 40 c15 -9 19 -22 19 -70 0 -33 -3 -60 -7 -60 -5
0 -7 21 -5 47 4 63 -8 80 -45 67 -26 -9 -28 -14 -28 -62 0 -29 -3 -52 -7 -52
-5 0 -8 30 -7 68 0 37 3 61 6 55 4 -10 10 -10 26 2 26 18 23 18 48 5z m264
-14 c2 -6 5 -34 8 -62 l4 -51 -51 1 c-45 1 -51 4 -54 24 -5 33 15 52 54 52 37
0 37 0 28 24 -7 18 -49 22 -59 6 -3 -5 -11 -10 -16 -10 -16 0 1 21 24 29 25 9
57 3 62 -13z m204 15 c18 -12 29 -131 12 -131 -7 0 -11 21 -11 54 0 60 -8 71
-46 62 -22 -6 -24 -11 -24 -61 0 -30 -4 -55 -10 -55 -6 0 -10 29 -10 66 0 51
3 65 13 61 8 -3 20 -1 28 4 18 11 30 11 48 0z m159 -19 c6 -9 12 -24 12 -34 0
-15 -8 -18 -50 -18 -54 0 -55 -1 -40 -31 11 -20 54 -26 65 -9 3 6 11 10 17 10
7 0 6 -6 -2 -15 -15 -18 -74 -20 -87 -2 -6 6 -13 23 -16 36 -17 67 59 115 101
63z m88 14 c32 21 31 7 -1 -18 -20 -15 -25 -28 -25 -64 0 -24 -3 -44 -7 -44
-5 0 -7 28 -6 63 2 74 4 88 10 65 4 -16 6 -16 29 -2z m-852 -18 c34 -49 7
-108 -49 -108 -38 0 -55 20 -55 65 0 45 17 65 55 65 24 0 39 -7 49 -22z m476
-43 c0 -37 -4 -65 -10 -65 -6 0 -10 28 -10 65 0 37 4 65 10 65 6 0 10 -28 10
-65z m-2330 12 c0 -13 -83 -204 -92 -212 -13 -12 -12 -9 39 122 21 51 41 93
45 93 4 0 8 -2 8 -3z m-240 -22 c17 -9 30 -23 30 -32 0 -14 -4 -13 -23 5 -44
41 -97 22 -112 -41 -9 -36 12 -86 42 -98 27 -10 71 4 79 26 3 8 10 12 16 9 17
-11 -34 -54 -64 -54 -42 0 -68 17 -84 55 -19 45 -8 90 28 120 34 29 48 31 88
10z m100 -85 c0 -60 -4 -100 -10 -100 -11 0 -14 182 -3 193 12 13 13 7 13 -93z
m294 79 c14 -11 26 -25 26 -31 0 -7 -10 -2 -23 10 -65 61 -150 -27 -106 -109
23 -43 83 -43 116 0 11 14 12 14 13 -1 0 -24 -38 -48 -76 -48 -24 0 -39 8 -58
31 -72 85 23 215 108 148z m198 -6 c21 -19 33 -73 24 -108 -11 -43 -44 -65
-98 -65 l-48 0 0 99 0 99 52 -5 c29 -2 61 -11 70 -20z m3399 -121 l25 -57 27
58 c15 34 32 57 41 57 13 0 16 -16 16 -95 0 -57 -4 -95 -10 -95 -6 0 -10 36
-10 88 l-1 87 -29 -62 c-16 -35 -32 -63 -35 -63 -3 0 -18 26 -33 58 l-27 57
-5 -90 c-6 -115 -20 -97 -18 23 2 113 19 123 59 34z m479 37 c0 -5 -4 -9 -10
-9 -5 0 -10 7 -10 16 0 8 5 12 10 9 6 -3 10 -10 10 -16z m70 -15 c0 -18 6 -24
23 -25 l22 -2 -22 -4 c-20 -4 -23 -10 -23 -58 0 -48 2 -54 23 -58 19 -3 20 -4
4 -11 -30 -14 -47 11 -47 70 0 36 -4 54 -12 55 -10 0 -10 2 0 6 6 2 12 18 12
34 0 18 4 28 10 24 6 -3 10 -17 10 -31z m330 15 c0 -5 -4 -9 -10 -9 -5 0 -10
7 -10 16 0 8 5 12 10 9 6 -3 10 -10 10 -16z m-7331 -53 c19 -22 9 -69 -16 -82
l-23 -11 31 -41 c17 -23 26 -42 20 -42 -6 0 -23 18 -37 40 -19 28 -34 40 -50
40 -21 0 -24 -5 -24 -40 0 -22 -4 -40 -10 -40 -6 0 -10 38 -10 95 l0 95 54 0
c34 0 58 -5 65 -14z m651 -1 c0 -8 -4 -15 -10 -15 -5 0 -10 7 -10 15 0 8 5 15
10 15 6 0 10 -7 10 -15z m92 -37 c9 1 19 -2 23 -8 4 -6 -4 -10 -19 -10 -25 0
-26 -3 -26 -54 0 -52 1 -55 28 -59 20 -4 18 -4 -8 -3 l-35 1 -3 58 c-2 36 -7
57 -15 57 -7 1 -6 5 4 13 17 13 18 16 20 45 1 9 4 4 8 -13 5 -20 12 -29 23
-27z m325 30 c-3 -8 -6 -5 -6 6 -1 11 2 17 5 13 3 -3 4 -12 1 -19z m5642 -12
c17 -37 5 -75 -30 -95 -24 -13 -29 -13 -53 2 -21 14 -26 25 -26 60 0 53 15 69
60 65 27 -2 38 -9 49 -32z m76 24 c8 6 26 10 42 8 27 -3 28 -5 31 -71 2 -46
-1 -67 -8 -62 -5 3 -10 31 -10 61 0 59 -13 74 -49 55 -16 -9 -21 -23 -24 -69
-3 -51 -3 -49 -4 18 -1 41 1 69 4 62 4 -10 8 -10 18 -2z m145 -55 c0 -37 -4
-65 -10 -65 -6 0 -10 28 -10 65 0 37 4 65 10 65 6 0 10 -28 10 -65z m248 33
c26 -54 -17 -116 -71 -103 -44 12 -58 81 -24 123 6 8 25 12 46 10 28 -2 39 -9
49 -30z m62 20 c0 -9 3 -9 12 0 7 7 19 12 28 12 10 -1 6 -8 -12 -21 -23 -17
-28 -28 -28 -65 0 -24 -4 -44 -10 -44 -6 0 -10 28 -10 65 0 37 4 65 10 65 6 0
10 -5 10 -12z m90 -52 c0 -36 -4 -68 -10 -71 -6 -4 -10 20 -10 64 0 41 4 71
10 71 6 0 10 -28 10 -64z m69 0 c1 -36 -3 -67 -9 -71 -6 -4 -10 18 -10 64 0
89 16 94 19 7z m85 48 c10 -25 7 -112 -4 -119 -5 -3 -10 21 -12 57 -3 61 -4
63 -30 63 -16 -1 -28 3 -28 7 0 16 68 8 74 -8z m132 5 c4 -8 9 -7 15 2 13 20
11 -138 -1 -162 -18 -33 -100 -21 -100 15 0 5 9 1 20 -9 25 -23 70 -13 70 16
0 16 -4 19 -20 14 -35 -11 -70 20 -70 61 0 51 15 74 50 74 16 0 32 -5 36 -11z
m-3136 -29 c27 -27 25 -55 -6 -79 l-26 -20 26 -34 c27 -35 32 -47 19 -47 -5 0
-21 20 -36 45 -21 33 -35 45 -53 45 -22 0 -24 -4 -24 -46 0 -25 -4 -43 -8 -40
-6 3 -9 182 -3 194 0 1 21 2 46 2 32 0 51 -6 65 -20z m380 -1 c0 -5 -4 -9 -10
-9 -5 0 -10 7 -10 16 0 8 5 12 10 9 6 -3 10 -10 10 -16z m228 -40 l27 -2 -27
-4 c-27 -4 -28 -7 -28 -59 0 -47 2 -54 20 -54 11 0 20 -4 20 -10 0 -14 -33
-13 -48 2 -7 7 -12 36 -12 65 0 36 -4 53 -12 53 -7 0 -5 5 5 11 9 5 18 20 18
32 2 17 3 16 6 -5 3 -22 10 -28 31 -29z m-4961 16 c11 -8 23 -26 25 -40 5 -24
3 -25 -43 -25 -34 0 -49 -4 -49 -13 0 -33 53 -49 79 -24 11 10 13 9 9 -3 -7
-22 -66 -25 -89 -4 -34 30 -21 102 21 117 23 8 24 8 47 -8z m112 5 c49 26 99
-47 70 -99 -12 -21 -23 -26 -52 -26 -34 0 -37 -3 -37 -27 0 -15 -4 -30 -10
-33 -6 -4 -10 31 -10 97 0 61 4 98 9 89 7 -10 13 -11 30 -1z m219 -31 c13 -25
8 -65 -10 -87 -7 -7 -26 -12 -47 -10 -28 2 -39 9 -50 32 -37 78 67 141 107 65z
m113 31 c10 -6 19 -16 19 -22 0 -9 -3 -9 -12 0 -17 17 -55 15 -62 -3 -5 -14
27 -35 53 -35 17 0 32 -30 26 -50 -5 -16 -15 -20 -45 -20 -21 0 -42 5 -45 11
-11 17 1 21 23 8 11 -7 27 -9 36 -6 28 11 17 33 -24 50 -44 17 -54 48 -22 66
22 13 29 13 53 1z m327 -18 c17 -22 15 -72 -5 -94 -22 -25 -79 -24 -93 1 -22
43 -7 102 30 113 22 7 53 -2 68 -20z m87 14 c15 10 25 12 30 5 3 -6 -1 -11 -9
-11 -25 0 -49 -46 -44 -85 2 -19 0 -35 -4 -35 -4 0 -7 33 -7 73 1 39 3 64 6
55 4 -16 6 -16 28 -2z m213 -2 c12 -8 22 -26 22 -40 0 -22 -4 -24 -50 -24 -47
0 -49 -1 -41 -22 9 -25 47 -36 64 -19 17 17 31 13 17 -4 -18 -22 -77 -19 -90
4 -22 43 -7 101 30 114 23 8 24 8 48 -9z m146 -5 c5 -5 6 -12 2 -16 -4 -4 -11
-2 -15 6 -11 18 -55 10 -59 -11 -2 -12 8 -20 37 -28 43 -11 53 -25 39 -52 -11
-22 -70 -24 -88 -3 -14 17 0 21 17 4 15 -15 57 -7 61 12 2 12 -9 21 -40 30
-47 15 -58 37 -32 64 17 17 58 14 78 -6z m-694 -54 c0 -37 -4 -65 -10 -65 -6
0 -10 28 -10 65 0 37 4 65 10 65 6 0 10 -28 10 -65z m420 -6 c0 -38 -3 -68 -7
-66 -8 5 -5 137 3 137 2 0 4 -32 4 -71z m3570 32 c5 -11 10 -29 10 -40 0 -18
-6 -21 -46 -21 -38 0 -45 -3 -42 -17 3 -14 13 -18 46 -17 34 1 40 -2 31 -13
-32 -38 -99 1 -99 57 0 60 74 98 100 51z m159 -51 c-2 -78 -11 -105 -40 -120
-24 -14 -69 1 -69 22 0 9 3 9 12 0 25 -25 78 -8 78 25 0 8 -9 11 -29 7 -57
-12 -92 61 -56 114 13 17 24 21 61 20 l45 -2 -2 -66z m61 0 c0 -40 -4 -70 -10
-70 -6 0 -10 30 -10 70 0 40 4 70 10 70 6 0 10 -30 10 -70z m128 52 c3 -11 0
-11 -16 -1 -10 7 -27 9 -36 6 -28 -11 -17 -33 24 -50 48 -18 55 -51 15 -69
-28 -13 -75 2 -75 24 0 9 3 9 12 0 7 -7 25 -12 40 -12 41 0 38 34 -3 46 -41
12 -58 37 -39 59 16 19 71 17 78 -3z m172 6 c0 -9 3 -9 12 0 7 7 19 12 28 12
10 -1 6 -8 -12 -21 -24 -18 -28 -28 -28 -70 0 -31 -4 -48 -10 -44 -5 3 -10 35
-10 71 0 36 4 64 10 64 6 0 10 -5 10 -12z m106 -43 c10 -30 20 -52 24 -50 4 3
13 25 20 50 7 25 17 48 23 52 6 4 8 0 5 -8 -3 -8 -15 -44 -27 -82 -24 -72 -42
-97 -69 -96 -13 0 -12 3 5 11 34 16 36 39 8 111 -14 37 -21 67 -15 67 5 0 17
-25 26 -55z m-3770 -209 c-9 -14 -26 -31 -38 -37 -16 -9 -13 -3 10 18 17 17
32 37 32 44 0 7 3 9 6 6 4 -4 -1 -18 -10 -31z m2150 0 c-9 -14 -26 -31 -38
-37 -16 -9 -13 -3 10 18 17 17 32 37 32 44 0 7 3 9 6 6 4 -4 -1 -18 -10 -31z
m2477 -45 c-4 -6 -63 51 -63 60 0 4 15 -7 33 -24 18 -18 31 -34 30 -36z
m-6383 39 c6 -11 8 -20 6 -20 -3 0 -10 9 -16 20 -6 11 -8 20 -6 20 3 0 10 -9
16 -20z m4209 -14 c-3 -3 -11 5 -18 17 -13 21 -12 21 5 5 10 -10 16 -20 13
-22z m-2109 -23 c0 -7 -39 17 -46 28 -3 6 5 3 20 -6 14 -10 26 -19 26 -22z
m-2031 -9 c14 -12 -19 -1 -35 12 -18 14 -18 14 6 3 14 -6 27 -13 29 -15z
m4201 3 c13 -5 13 -6 -1 -6 -8 -1 -24 6 -35 15 -19 15 -19 15 1 6 11 -5 27
-12 35 -15z m-2583 -3 c-3 -3 -12 -4 -19 -1 -8 3 -5 6 6 6 11 1 17 -2 13 -5z
m2133 -4 c-14 -4 -394 -7 -845 -7 l-820 2 825 5 c454 3 834 6 845 7 14 1 13
-1 -5 -7z m2147 4 c-3 -3 -12 -4 -19 -1 -8 3 -5 6 6 6 11 1 17 -2 13 -5z m460
0 c-3 -3 -12 -4 -19 -1 -8 3 -5 6 6 6 11 1 17 -2 13 -5z m-5169 -11 c-212 -2
-563 -2 -780 0 -216 1 -42 2 387 2 429 0 606 -1 393 -2z m4254 0 c-228 -2
-597 -2 -820 0 -224 1 -38 2 413 2 451 0 634 -1 407 -2z m2056 0 c-208 -2
-548 -2 -755 0 -208 1 -38 2 377 2 415 0 585 -1 378 -2z m-7733 -221 c-3 -3
-11 0 -18 7 -9 10 -8 11 6 5 10 -3 15 -9 12 -12z m58 -9 c-7 -2 -21 -2 -30 0
-10 3 -4 5 12 5 17 0 24 -2 18 -5z m6270 0 c-1146 -2 -3020 -2 -4165 0 -1146
1 -209 2 2082 2 2291 0 3228 -1 2083 -2z m-4743 -260 l1 -198 27 34 c50 65 70
86 75 81 6 -5 -104 -149 -114 -150 -10 0 -119 143 -114 149 4 3 18 -10 33 -29
15 -19 37 -46 49 -60 l22 -25 1 198 c0 124 4 197 10 197 6 0 10 -73 10 -197z
m2674 -139 c21 31 45 56 52 56 12 0 -89 -142 -104 -147 -4 -1 -27 23 -52 54
-61 76 -73 93 -63 93 5 0 28 -25 53 -56 l45 -57 7 49 c3 27 8 117 9 199 l3
150 6 -199 5 -199 39 57z m2580 131 c-1 -102 2 -185 6 -185 3 0 24 25 46 55
21 30 43 55 47 55 5 0 7 -4 5 -9 -7 -19 -103 -140 -110 -138 -12 4 -117 141
-112 147 3 3 20 -13 37 -34 73 -92 66 -103 67 107 0 103 3 187 8 187 4 0 7
-83 6 -185z m-5911 -362 c-149 -2 -397 -2 -550 0 -153 1 -30 2 272 2 303 0
428 -1 278 -2z m1290 0 c-182 -2 -484 -2 -670 0 -186 1 -36 2 332 2 369 0 521
-1 338 -2z m1050 0 c-122 -2 -324 -2 -450 0 -125 1 -25 2 222 2 248 0 350 -1
228 -2z m480 0 c-45 -2 -122 -2 -170 0 -48 1 -11 3 82 3 94 0 133 -2 88 -3z
m120 0 c-7 -2 -19 -2 -25 0 -7 3 -2 5 12 5 14 0 19 -2 13 -5z m200 0 c-35 -2
-91 -2 -125 0 -35 2 -7 3 62 3 69 0 97 -1 63 -3z m3260 0 c-584 -2 -1542 -2
-2130 0 -587 1 -109 2 1062 2 1172 0 1652 -1 1068 -2z m-7343 -19 c-19 -8 -46
-27 -58 -42 -20 -23 -22 -24 -12 -4 12 25 66 62 90 62 8 -1 -1 -7 -20 -16z
m8466 -4 c18 -12 42 -40 53 -64 21 -42 21 -48 19 -1117 l-3 -1074 -5 1085 c-4
796 -8 1090 -17 1105 -16 29 -54 62 -83 74 -14 5 -19 10 -11 10 7 1 28 -8 47
-19z m-8546 -1129 c0 -699 -3 -1062 -10 -1066 -6 -4 -10 340 -9 1032 1 933 3
1093 15 1093 2 0 4 -477 4 -1059z m4300 865 c-15 -40 -12 -141 5 -182 10 -24
11 -34 3 -32 -35 12 -48 171 -18 227 16 30 23 21 10 -13z m748 -79 c4 -79 -8
-137 -27 -137 -5 0 -3 17 5 38 17 48 17 117 -1 167 -19 51 -19 53 3 32 13 -13
18 -38 20 -100z m-4619 92 c17 -6 36 -20 42 -30 13 -24 4 -24 -28 1 -14 11
-32 20 -39 20 -26 0 -62 -23 -73 -47 -17 -37 -13 -59 15 -92 31 -37 68 -40
101 -9 29 27 44 15 16 -14 -33 -32 -96 -30 -130 5 -50 50 -33 141 32 168 27
11 28 11 64 -2z m400 -3 c86 -45 54 -186 -43 -189 -97 -3 -132 141 -45 189 31
17 54 17 88 0z m651 -86 c0 -60 -4 -100 -10 -100 -11 0 -14 182 -3 193 12 13
13 7 13 -93z m981 81 c13 -11 20 -23 16 -28 -5 -4 -13 0 -18 10 -13 22 -72 23
-89 1 -18 -21 2 -40 59 -57 51 -14 67 -33 57 -70 -12 -48 -123 -56 -140 -10
-10 25 0 27 23 4 24 -24 59 -27 85 -8 31 23 16 50 -38 67 -43 14 -76 40 -76
62 0 4 9 17 20 28 25 25 71 26 101 1z m817 -1 c17 -11 32 -24 32 -30 0 -16
-15 -12 -35 10 -23 26 -55 25 -89 -1 -36 -28 -37 -89 -1 -124 30 -31 62 -32
92 -3 28 26 44 16 19 -11 -38 -42 -119 -31 -146 18 -15 29 -12 94 6 119 30 44
74 51 122 22z m1235 -8 c24 -21 13 -27 -15 -8 -54 38 -118 -2 -118 -73 0 -31
6 -44 26 -60 15 -12 38 -21 52 -21 31 0 62 26 62 52 0 14 -8 18 -35 18 -19 0
-35 5 -35 10 0 6 20 10 45 10 42 0 45 -2 45 -26 0 -39 -16 -61 -54 -74 -69
-22 -126 19 -126 92 0 51 14 77 53 93 35 15 73 10 100 -13z m231 -3 c11 -10
17 -21 14 -25 -4 -3 -16 4 -27 15 -29 29 -67 27 -97 -6 -22 -23 -25 -35 -21
-68 10 -72 76 -98 122 -49 17 18 25 22 25 12 0 -8 -8 -22 -17 -30 -62 -53
-153 -8 -153 76 0 87 94 132 154 75z m-4184 -68 l0 -90 53 -4 52 -3 -62 -2
-63 -2 0 95 c0 57 4 95 10 95 6 0 10 -36 10 -89z m380 21 c0 -79 17 -112 57
-112 48 0 63 25 63 107 0 47 4 73 11 73 8 0 10 -26 7 -80 -4 -94 -18 -115 -78
-115 -60 0 -74 21 -78 115 -3 54 -1 80 7 80 7 0 11 -25 11 -68z m335 43 c33
-32 35 -100 4 -139 -18 -23 -28 -26 -80 -26 l-59 0 0 95 0 95 55 0 c46 0 60
-4 80 -25z m349 -50 c27 -42 53 -78 58 -81 6 -4 8 26 6 75 -2 45 0 81 5 81 4
0 7 -45 7 -101 0 -67 -3 -98 -10 -94 -6 4 -35 43 -65 88 l-55 82 0 -83 c0 -48
-4 -82 -10 -82 -6 0 -10 38 -10 95 0 69 3 95 13 95 6 0 34 -34 61 -75z m262
68 c-4 -4 -27 -6 -51 -4 l-45 3 0 -36 c0 -34 2 -36 34 -36 19 0 38 -4 41 -10
4 -6 -10 -10 -34 -10 l-41 0 0 -45 c0 -25 -4 -45 -10 -45 -6 0 -10 38 -10 95
l0 95 62 0 c34 0 58 -3 54 -7z m178 -9 c9 -8 16 -24 16 -34 0 -20 -25 -50 -41
-50 -5 0 2 -20 17 -45 14 -25 21 -45 15 -45 -6 0 -21 18 -33 40 -19 34 -28 40
-55 40 -32 0 -33 -2 -33 -40 0 -22 -4 -40 -10 -40 -6 0 -10 38 -10 95 l0 95
59 0 c41 0 65 -5 75 -16z m203 -78 c19 -48 32 -93 30 -100 -3 -6 -10 4 -17 22
-11 31 -14 32 -64 32 -47 0 -54 -3 -64 -25 -6 -14 -16 -25 -21 -25 -5 0 5 35
23 78 18 42 36 85 39 95 14 39 40 12 74 -77z m393 85 l-35 -6 -3 -87 c-4 -116
-22 -114 -22 1 l0 90 -37 4 c-21 2 0 4 47 4 52 0 71 -2 50 -6z m204 -7 c9 -8
16 -22 16 -30 0 -25 -20 -54 -36 -54 -12 0 -9 -10 12 -45 14 -25 21 -45 15
-45 -6 0 -21 18 -33 40 -19 34 -28 40 -55 40 -32 0 -33 -2 -33 -40 0 -22 -4
-40 -10 -40 -6 0 -10 38 -10 95 l0 95 59 0 c41 0 65 -5 75 -16z m86 -52 c0
-101 38 -138 98 -96 19 13 22 24 22 90 0 48 4 74 11 74 18 0 6 -157 -13 -177
-23 -22 -93 -22 -115 0 -21 21 -33 177 -14 177 7 0 11 -25 11 -68z m520 59
l-35 -6 -6 -95 c-3 -52 -7 -92 -8 -87 -7 16 -9 30 -10 106 l-1 80 -32 4 c-18
2 3 4 47 4 51 0 67 -2 45 -6z m90 -61 c0 -77 19 -110 62 -110 43 0 58 27 58
107 0 42 4 73 10 73 6 0 10 -31 10 -73 0 -83 -14 -111 -60 -120 -44 -9 -76 7
-89 44 -14 40 -15 149 -1 149 6 0 10 -30 10 -70z m332 53 c24 -21 23 -48 -3
-72 -18 -16 -19 -22 -9 -43 7 -12 19 -31 28 -40 14 -16 13 -18 -1 -18 -9 0
-26 18 -37 40 -18 35 -25 40 -55 40 -34 0 -35 -1 -35 -40 0 -22 -4 -40 -10
-40 -6 0 -10 38 -10 95 l0 95 57 0 c38 0 62 -5 75 -17z m215 10 c-4 -3 -30 -6
-59 -7 -52 -1 -53 -1 -56 -33 -3 -33 -3 -33 42 -33 25 0 46 -4 46 -10 0 -5
-20 -10 -45 -10 l-45 0 0 -40 0 -40 60 0 c33 0 60 -3 60 -7 0 -5 -31 -7 -70
-5 l-70 4 0 94 0 94 72 0 c39 0 68 -3 65 -7z m841 -5 c7 -7 12 -24 12 -39 0
-36 -33 -59 -82 -59 -38 0 -38 0 -38 -40 0 -22 -4 -40 -10 -40 -6 0 -10 38
-10 95 l0 95 58 0 c32 0 63 -5 70 -12z m-3821 -448 l-819 -5 -34 -37 -34 -38
0 -597 c0 -328 -2 -594 -5 -591 -3 3 -6 268 -6 591 -1 646 -3 623 63 666 33
21 35 21 843 18 l810 -2 -818 -5z m3005 -15 c60 -45 58 -28 56 -698 l-3 -612
-5 620 c-4 443 -8 626 -17 640 -6 11 -21 29 -33 40 -22 20 -42 20 -889 25
l-866 5 865 0 c849 0 865 0 892 -20z m1676 18 c-234 -2 -621 -2 -860 0 -238 1
-46 2 427 2 473 0 668 -1 433 -2z m2490 -13 c18 -11 41 -34 52 -52 19 -32 20
-50 18 -648 l-3 -615 -5 620 c-5 674 -3 649 -63 685 -31 19 -57 20 -830 20
-877 0 -840 3 -872 -60 -14 -26 -16 -107 -15 -622 0 -325 -2 -589 -6 -586 -3
4 -6 269 -6 590 0 648 -2 627 65 668 31 19 56 20 832 20 781 0 801 -1 833 -20z
m-1998 -43 c19 -31 20 -56 20 -657 0 -591 -1 -627 -19 -653 -19 -29 -59 -62
-67 -55 -2 3 7 10 19 17 13 7 31 25 40 41 15 25 17 87 17 650 0 430 -3 628
-11 643 -6 12 -23 33 -37 45 -24 21 -25 23 -4 12 13 -6 32 -26 42 -43z m-4270
-30 c0 -6 -6 -3 -12 8 -6 11 -18 29 -27 40 -9 12 -4 8 12 -7 15 -16 27 -34 27
-41z m294 42 l-29 -30 -5 -637 -5 -637 -3 632 -2 632 31 36 c17 19 34 35 37
35 3 0 -7 -14 -24 -31z m2143 3 c-15 -15 -27 -35 -28 -43 0 -11 -2 -11 -6 -1
-5 12 42 72 56 72 2 0 -7 -13 -22 -28z m-2432 -1289 c-6 -32 -73 -103 -98
-103 -6 0 2 8 18 19 17 10 39 28 50 41 19 21 20 40 25 649 l5 626 3 -600 c1
-330 0 -614 -3 -632z m2397 435 c2 -251 0 -451 -4 -445 -4 7 -7 289 -6 627 2
338 4 539 5 445 2 -93 4 -375 5 -627z m-1054 659 c44 -24 40 -42 -15 -64 -58
-22 -218 -25 -275 -5 -62 22 -48 57 31 83 46 15 222 5 259 -14z m4143 7 c31
-15 59 -66 59 -104 0 -12 -4 -18 -10 -15 -5 3 -10 21 -10 39 0 99 -164 107
-194 10 -18 -59 -19 -61 -23 -42 -7 29 25 87 59 108 40 24 78 25 119 4z
m-6183 -136 c1 -81 7 -138 12 -138 6 0 10 -4 10 -10 0 -6 -42 -10 -105 -10
l-105 0 0 -30 0 -30 75 0 c43 0 75 -4 75 -10 0 -6 -60 -10 -160 -10 -100 0
-160 4 -160 10 0 6 32 10 75 10 l75 0 0 30 0 30 -112 0 c-87 0 -109 3 -100 12
8 8 12 55 12 143 0 73 3 134 6 137 3 3 94 5 202 4 l197 -1 3 -137z m4138 100
c61 -42 84 -86 84 -161 0 -117 -60 -179 -179 -185 -78 -4 -119 14 -163 69 -36
45 -50 122 -32 174 14 43 35 68 88 106 32 24 49 29 96 29 49 0 65 -5 106 -32z
m-2388 -84 c18 -8 71 -18 119 -21 71 -4 99 -2 146 14 l57 20 0 -38 c0 -33 -5
-41 -31 -54 -51 -27 -144 -37 -220 -25 -101 15 -119 26 -119 70 0 30 6 50 15
50 1 0 16 -7 33 -16z m4532 -31 c0 -5 -66 -8 -147 -8 l-148 0 -6 -110 -5 -110
-2 106 c-1 71 2 109 10 117 13 13 298 18 298 5z m-4415 -121 c85 -4 113 1 188
33 16 7 18 3 15 -41 -4 -69 -27 -79 -183 -79 -97 0 -126 3 -153 18 -19 10 -32
21 -29 24 3 2 18 -4 33 -14 23 -15 48 -18 144 -18 75 0 126 5 148 14 28 12 32
18 32 52 l0 40 -32 -18 c-49 -25 -201 -30 -267 -8 -28 9 -51 21 -51 26 0 5 15
2 33 -8 21 -11 63 -18 122 -21z m-158 -24 c-3 -7 -5 -2 -5 12 0 14 2 19 5 13
2 -7 2 -19 0 -25z m4436 -35 c-7 -2 -19 -2 -25 0 -7 3 -2 5 12 5 14 0 19 -2
13 -5z m137 -48 c-10 -12 -39 -15 -159 -13 l-146 2 145 3 c79 2 149 8 154 13
16 16 20 12 6 -5z m-1930 -246 c-44 -109 -47 -115 -55 -107 -3 2 11 45 31 94
42 103 54 128 60 121 3 -2 -14 -51 -36 -108z m1450 -3 l0 -93 -50 -2 c-55 -2
-70 13 -70 66 0 50 35 78 78 62 20 -8 22 -6 22 32 0 24 4 38 10 34 6 -3 10
-48 10 -99z m-6420 69 c28 -30 18 -33 -17 -5 -33 26 -46 25 -80 -4 -23 -20
-28 -32 -27 -67 2 -71 69 -105 114 -57 25 27 35 20 14 -10 -23 -34 -95 -31
-123 4 -31 39 -29 107 4 139 33 34 83 34 115 0z m2311 6 c13 -11 21 -22 17
-26 -3 -4 -16 3 -28 15 -16 16 -29 20 -48 15 -60 -14 -81 -88 -41 -139 25 -31
57 -33 93 -5 29 23 36 11 9 -14 -40 -35 -104 -22 -127 27 -20 42 -20 59 -1 96
27 52 83 66 126 31z m76 -123 c-2 -29 -3 -8 -3 47 0 55 1 79 3 53 2 -26 2 -71
0 -100z m463 49 l0 -93 -47 1 c-42 0 -49 3 -61 27 -25 52 19 119 68 103 17 -5
20 -2 20 24 0 17 5 31 10 31 6 0 10 -38 10 -93z m1540 31 c45 -126 38 -122 72
-33 27 73 49 114 47 90 -1 -29 -67 -180 -77 -180 -8 0 -29 41 -48 90 -39 104
-36 95 -25 95 4 0 19 -28 31 -62z m261 52 c13 -7 19 -21 19 -45 0 -39 -20 -55
-69 -55 -29 0 -31 -2 -31 -40 0 -22 -5 -40 -10 -40 -7 0 -10 35 -9 95 l1 95
40 0 c22 0 48 -5 59 -10z m193 -6 c23 -23 20 -40 -4 -19 -25 23 -67 22 -90 -1
-30 -31 -30 -94 0 -124 26 -26 65 -25 91 1 26 26 39 16 14 -11 -13 -14 -31
-20 -61 -20 -52 0 -84 33 -84 87 0 37 22 88 42 96 27 11 77 6 92 -9z m1406
-79 c0 -57 -4 -95 -10 -95 -6 0 -10 38 -10 95 0 57 4 95 10 95 6 0 10 -38 10
-95z m627 73 c-3 -8 -6 -5 -6 6 -1 11 2 17 5 13 3 -3 4 -12 1 -19z m-6097 -8
c0 -13 7 -20 20 -20 11 0 20 -4 20 -10 0 -5 -9 -10 -20 -10 -22 0 -33 -31 -28
-76 2 -22 9 -30 27 -32 18 -3 21 -6 11 -12 -30 -19 -50 8 -50 65 0 36 -4 55
-12 55 -9 0 -9 3 0 12 7 7 12 20 12 30 0 10 5 18 10 18 6 0 10 -9 10 -20z
m6010 0 c0 -13 7 -20 20 -20 11 0 20 -4 20 -10 0 -5 -9 -10 -20 -10 -18 0 -20
-7 -20 -54 0 -49 3 -55 23 -59 15 -4 12 -5 -8 -4 -29 2 -30 3 -33 60 -2 34 -8
57 -14 57 -9 0 -9 3 0 12 7 7 12 20 12 30 0 10 5 18 10 18 6 0 10 -9 10 -20z
m168 -2 c-2 -19 1 -22 20 -20 12 2 22 -2 22 -7 0 -6 -11 -11 -26 -11 -24 0
-25 -2 -22 -52 3 -46 6 -53 28 -60 23 -6 23 -7 -5 -5 -29 2 -30 3 -33 60 -2
31 -7 57 -12 57 -6 0 -10 5 -10 11 0 5 5 7 10 4 6 -4 10 5 10 19 0 14 5 26 11
26 5 0 9 -10 7 -22z m-6800 -41 c17 -13 15 -92 -2 -106 -8 -7 -30 -11 -48 -9
-25 2 -36 10 -47 32 -32 68 38 128 97 83z m87 9 c18 12 28 13 44 4 15 -8 27
-8 41 0 14 8 26 8 40 0 17 -9 20 -21 20 -70 0 -33 -4 -60 -10 -60 -6 0 -10 27
-10 61 0 60 0 60 -27 57 -27 -3 -28 -6 -31 -60 -4 -74 -22 -76 -22 -3 0 42 -4
57 -16 62 -31 11 -49 -11 -54 -68 l-6 -54 -4 68 c-5 63 1 101 8 63 3 -14 6
-14 27 0z m303 -14 c16 -21 15 -73 -1 -96 -10 -14 -23 -17 -50 -14 -36 4 -37
3 -37 -29 0 -18 -4 -33 -10 -33 -6 0 -10 39 -10 96 0 73 3 95 13 91 6 -2 21
-1 32 3 24 9 46 2 63 -18z m72 -96 c5 -5 20 -6 34 -2 24 6 26 11 26 61 0 30 5
55 10 55 6 0 10 -27 10 -62 l0 -63 -50 -3 c-40 -2 -50 0 -51 12 -1 39 0 117 2
124 2 4 4 -20 6 -53 2 -33 8 -64 13 -69z m315 99 c40 -39 33 -55 -25 -55 -34
0 -50 -4 -50 -13 0 -33 53 -49 79 -24 11 10 13 9 9 -3 -7 -23 -79 -26 -95 -4
-24 33 -8 108 26 117 29 8 32 7 56 -18z m1612 -17 c26 -52 -21 -117 -71 -99
-30 11 -50 55 -38 89 18 54 84 61 109 10z m3998 17 c40 -39 33 -55 -25 -55
-34 0 -50 -4 -50 -13 0 -19 21 -37 45 -37 12 0 26 5 33 12 9 9 12 9 12 0 0
-20 -47 -33 -74 -21 -24 11 -36 35 -36 72 0 20 42 67 60 67 6 0 22 -11 35 -25z
m105 13 c43 25 60 5 60 -69 0 -33 -3 -59 -7 -59 -5 0 -8 26 -8 57 0 53 -2 58
-23 61 -39 6 -54 -16 -50 -70 1 -26 0 -48 -4 -48 -5 0 -7 33 -7 73 1 39 3 64
6 55 4 -15 6 -15 33 0z m459 -87 c-17 -44 -39 -86 -49 -91 -24 -13 -30 -13
-30 0 0 6 7 10 15 10 33 0 36 37 10 101 -29 71 -28 69 -16 69 5 0 17 -23 26
-50 17 -52 29 -57 39 -16 11 44 28 81 32 70 3 -6 -9 -48 -27 -93z m-4470 -24
c22 1 30 -2 23 -9 -5 -5 -22 -8 -38 -6 -28 3 -29 4 -30 68 l-1 65 6 -60 6 -60
34 2z m51 46 c0 -40 -4 -62 -9 -53 -7 14 -3 120 5 120 2 0 4 -30 4 -67z m4190
2 c0 -36 -4 -65 -8 -65 -5 0 -10 29 -11 65 -1 40 2 65 8 65 7 0 11 -26 11 -65z
m-6740 -175 c0 -5 -22 -10 -50 -10 l-50 0 0 -35 c0 -34 1 -35 43 -37 l42 -1
-42 -4 c-43 -4 -43 -4 -43 -44 l0 -39 50 0 c28 0 50 -4 50 -10 0 -6 -27 -10
-60 -10 l-60 0 0 100 0 100 60 0 c33 0 60 -4 60 -10z m2011 -9 c13 -11 20 -23
16 -28 -5 -4 -13 0 -18 10 -13 22 -87 24 -95 2 -9 -23 11 -41 62 -55 41 -12
64 -33 64 -59 0 -23 -41 -51 -74 -51 -36 0 -87 33 -73 47 5 4 13 0 18 -8 20
-37 109 -29 109 10 0 24 -15 35 -65 51 -38 11 -65 33 -65 52 0 4 9 17 20 28
25 25 71 26 101 1z m1904 -61 c28 -43 52 -79 55 -80 3 0 4 36 2 80 -3 54 -1
80 7 80 7 0 11 -34 11 -100 0 -55 -3 -100 -7 -100 -5 0 -34 40 -65 88 l-58 87
0 -87 c0 -52 -4 -88 -10 -88 -6 0 -10 40 -10 100 0 73 3 100 13 100 6 0 35
-36 62 -80z m845 10 l0 -70 36 40 c20 22 41 40 47 40 6 0 0 -11 -13 -25 l-24
-25 23 -41 c13 -22 21 -43 18 -46 -6 -6 -47 56 -47 71 0 6 -9 0 -20 -12 -11
-12 -20 -30 -20 -42 0 -11 -4 -20 -10 -20 -6 0 -10 40 -10 100 0 60 4 100 10
100 6 0 10 -30 10 -70z m1388 58 c18 -18 14 -45 -9 -67 -20 -19 -20 -20 -3
-46 l18 -28 14 22 c8 11 19 21 24 21 6 0 3 -12 -7 -26 -13 -20 -14 -28 -4 -40
6 -8 9 -18 5 -21 -4 -4 -11 -1 -16 7 -8 12 -13 13 -30 3 -27 -17 -55 -16 -74
3 -22 21 -20 50 5 75 15 15 18 24 10 32 -15 15 -14 50 1 65 7 7 21 12 33 12
12 0 26 -5 33 -12z m237 -5 c4 -10 17 -47 30 -83 13 -36 26 -73 30 -82 4 -11
3 -18 -4 -18 -6 0 -13 11 -17 25 -6 22 -11 25 -55 25 -44 0 -51 -3 -60 -26 -5
-15 -12 -24 -15 -21 -4 3 5 36 20 74 14 37 30 80 35 96 12 31 26 35 36 10z
m-6028 -15 c-3 -8 -6 -5 -6 6 -1 11 2 17 5 13 3 -3 4 -12 1 -19z m1753 -3 c0
-18 5 -25 20 -25 11 0 20 -4 20 -10 0 -5 -9 -10 -21 -10 -18 0 -20 -5 -17 -52
2 -43 6 -53 21 -52 9 1 17 -2 17 -7 0 -16 -48 -10 -54 7 -3 9 -6 35 -6 59 0
25 -5 46 -12 49 -10 5 -10 7 0 12 6 3 12 17 12 30 0 13 5 24 10 24 6 0 10 -11
10 -25z m2110 0 c0 -18 5 -25 20 -25 11 0 20 -4 20 -9 0 -5 -8 -8 -17 -7 -15
1 -18 -8 -18 -54 0 -46 3 -55 18 -54 9 1 17 -2 17 -7 0 -16 -48 -10 -54 7 -3
9 -6 35 -6 59 0 25 -5 46 -12 49 -10 5 -10 7 0 12 6 3 12 17 12 30 0 13 5 24
10 24 6 0 10 -11 10 -25z m690 16 c0 -6 -4 -13 -10 -16 -5 -3 -10 1 -10 9 0 9
5 16 10 16 6 0 10 -4 10 -9z m-4850 -53 c0 -9 3 -9 12 0 15 15 55 16 64 1 9
-16 11 -129 2 -129 -5 0 -8 27 -8 59 0 64 -14 80 -51 61 -15 -9 -19 -22 -19
-65 0 -30 -4 -55 -10 -55 -6 0 -10 30 -10 70 0 40 4 70 10 70 6 0 10 -5 10
-12z m216 1 c4 -8 9 -7 15 2 5 9 9 -19 9 -70 0 -65 -4 -89 -17 -103 -20 -22
-56 -23 -78 -2 -23 23 -11 29 18 9 24 -16 27 -15 46 4 30 30 26 42 -9 34 -42
-8 -70 19 -70 65 0 20 7 44 17 54 18 20 58 24 69 7z m81 -96 c-2 -21 -4 -4 -4
37 0 41 2 58 4 38 2 -21 2 -55 0 -75z m73 22 l-7 -60 -1 75 c-1 43 2 69 7 60
4 -8 5 -42 1 -75z m86 10 c1 -56 0 -59 -3 -15 -5 65 -17 84 -51 75 -16 -4 -21
-2 -17 5 4 6 21 10 38 8 l32 -3 1 -70z m141 63 c6 -7 13 -25 17 -40 6 -28 6
-28 -44 -28 -56 0 -69 -22 -25 -42 21 -9 28 -8 45 7 21 19 28 7 8 -13 -20 -20
-65 -14 -82 10 -34 48 -8 118 43 118 16 0 33 -6 38 -12z m1627 -10 c35 -50 9
-118 -45 -118 -53 0 -79 80 -39 120 27 27 65 26 84 -2z m66 10 c0 -9 3 -9 12
0 13 13 38 16 38 4 0 -4 -10 -12 -22 -17 -19 -8 -24 -19 -26 -62 -4 -78 -22
-64 -22 17 0 40 4 70 10 70 6 0 10 -5 10 -12z m158 0 c7 -7 12 -37 12 -67 l0
-56 -45 -3 c-35 -2 -46 2 -55 17 -5 11 -7 27 -4 36 8 20 48 37 69 29 10 -4 15
0 15 14 0 24 -25 35 -50 22 -27 -14 -34 -12 -20 5 15 18 61 20 78 3z m140 0
c9 -9 12 -9 12 0 0 7 5 12 10 12 6 0 10 -33 10 -80 0 -67 -3 -83 -20 -100 -11
-11 -27 -20 -36 -20 -22 0 -54 19 -54 32 0 7 5 7 14 -1 23 -19 70 -10 74 15 2
17 -2 20 -31 16 -39 -4 -56 11 -64 61 -4 27 -1 39 16 56 23 23 51 27 69 9z
m166 -10 c30 -43 21 -58 -34 -58 -53 0 -60 -8 -34 -35 17 -16 27 -16 69 1 18
7 18 6 6 -9 -14 -18 -57 -22 -78 -9 -22 14 -33 60 -22 89 18 48 67 59 93 21z
m1313 10 c6 -7 13 -25 17 -40 6 -28 6 -28 -44 -28 -38 0 -50 -4 -50 -15 0 -24
46 -41 65 -25 8 7 19 10 22 6 11 -11 -18 -26 -49 -26 -52 0 -78 80 -38 120 23
23 63 26 77 8z m195 -45 l15 -58 17 58 c10 31 21 57 26 57 5 0 14 -25 21 -55
7 -30 15 -55 19 -55 4 0 12 25 19 55 7 30 16 55 21 55 5 0 8 -6 5 -12 -2 -7
-11 -39 -20 -70 -8 -32 -20 -58 -25 -58 -5 0 -16 26 -26 58 l-17 57 -16 -58
c-8 -31 -19 -56 -25 -54 -8 3 -23 43 -40 111 -3 14 -3 26 2 26 4 0 15 -26 24
-57z m266 48 c39 -24 28 -117 -15 -127 -55 -14 -96 41 -73 100 12 33 57 47 88
27z m85 -8 c3 9 13 17 22 17 22 0 18 -14 -7 -25 -19 -8 -24 -19 -26 -62 -4
-75 -23 -66 -21 10 3 69 9 90 19 62 6 -17 7 -17 13 -2z m237 -53 c0 -40 -4
-70 -10 -70 -6 0 -10 30 -10 70 0 40 4 70 10 70 6 0 10 -30 10 -70z m55 60
c-3 -5 -2 -10 4 -10 5 0 13 5 16 10 9 14 55 12 60 -2 8 -28 11 -128 3 -128 -4
0 -8 27 -8 59 0 64 -14 80 -51 61 -15 -9 -19 -22 -19 -65 0 -30 -4 -55 -10
-55 -6 0 -10 30 -10 70 0 43 4 70 11 70 5 0 7 -4 4 -10z m221 -1 c4 -8 9 -7
15 2 5 9 9 -19 9 -68 0 -70 -3 -86 -20 -103 -11 -11 -27 -20 -36 -20 -20 0
-54 18 -54 30 0 5 12 3 27 -5 31 -16 63 -4 63 24 0 14 -6 17 -28 13 -18 -2
-35 2 -45 13 -22 21 -22 88 -1 109 18 18 60 21 70 5z m1384 -4 c18 -22 5 -31
-15 -11 -19 19 -21 19 -46 6 -28 -15 -27 -85 2 -100 16 -9 26 -8 45 5 25 16
33 8 12 -13 -35 -35 -98 2 -98 58 0 58 67 95 100 55z m145 -1 c22 -22 10 -32
-13 -11 -23 21 -36 21 -56 1 -24 -23 -20 -70 6 -88 20 -14 24 -14 46 0 29 19
39 13 16 -10 -38 -38 -114 13 -100 67 13 53 67 75 101 41z m143 3 c6 -6 13
-24 17 -40 7 -27 7 -27 -44 -27 -53 0 -62 -8 -35 -34 18 -19 16 -19 48 -6 14
5 26 6 26 1 0 -5 -7 -12 -16 -15 -31 -12 -63 -6 -78 16 -34 48 -8 118 43 118
16 0 33 -6 39 -13z m137 2 c11 -17 -2 -21 -24 -7 -18 11 -23 10 -38 -6 -10
-10 -13 -20 -8 -22 80 -31 105 -65 61 -85 -30 -14 -76 -4 -76 16 0 14 3 14 24
0 26 -18 58 -10 54 13 -2 8 -19 21 -38 27 -37 13 -54 50 -28 66 19 12 66 11
73 -2z m125 1 c8 -5 11 -12 7 -16 -3 -4 -13 -1 -21 5 -20 16 -58 4 -54 -17 2
-9 17 -19 34 -24 38 -10 57 -30 48 -51 -13 -34 -94 -33 -94 1 0 11 3 13 8 6
10 -17 45 -25 61 -15 21 13 8 33 -30 46 -55 19 -51 75 6 75 11 0 27 -4 35 -10z
m-7734 -219 c3 -13 20 -38 37 -54 18 -17 23 -25 12 -19 -37 19 -57 50 -61 94
-3 40 0 35 12 -21z m6371 -54 c17 -20 17 -21 0 -8 -23 18 -47 64 -47 88 1 10
7 1 14 -20 8 -21 22 -48 33 -60z m-2445 36 c-6 -10 -21 -27 -33 -38 -19 -16
-18 -14 4 13 15 19 27 38 27 44 0 6 3 9 6 6 3 -4 1 -15 -4 -25z m4179 4 c-10
-9 -11 -8 -5 6 3 10 9 15 12 12 3 -3 0 -11 -7 -18z m-6040 -14 c13 -16 12 -17
-3 -4 -17 13 -22 21 -14 21 2 0 10 -8 17 -17z m2192 -52 c-2 -3 -18 10 -36 29
l-32 34 36 -30 c20 -16 34 -31 32 -33z m3837 45 c0 -2 -8 -10 -17 -17 -16 -13
-17 -12 -4 4 13 16 21 21 21 13z m-5986 -31 c11 -8 16 -15 10 -15 -5 0 -18 7
-28 15 -11 8 -16 15 -10 15 5 0 18 -7 28 -15z m1721 -25 c-11 -5 -389 -8 -840
-7 l-820 2 825 5 c454 3 832 6 840 7 8 1 6 -2 -5 -7z m-2547 -7 c-212 -2 -563
-2 -780 0 -216 1 -42 2 387 2 429 0 606 -1 393 -2z m4250 0 c-225 -2 -591 -2
-815 0 -225 1 -41 2 407 2 448 0 632 -1 408 -2z m2065 0 c-211 -2 -555 -2
-765 0 -211 1 -39 2 382 2 421 0 593 -1 383 -2z m-7838 -107 c3 -17 23 -46 43
-65 24 -23 28 -30 12 -20 -35 22 -70 77 -69 108 1 28 3 23 14 -23z m8591 -44
c-14 -28 -63 -68 -72 -59 -2 2 7 9 20 17 13 7 32 27 42 46 10 18 20 32 22 30
2 -2 -3 -17 -12 -34z m-8459 -68 c-3 -3 -12 -4 -19 -1 -8 3 -5 6 6 6 11 1 17
-2 13 -5z m8358 -4 c-11 -5 -1880 -8 -4185 -7 l-4165 2 4170 5 c2294 3 4177 6
4185 7 8 1 6 -2 -5 -7z m-6815 -261 l0 -181 46 62 c25 34 48 59 51 56 7 -6
-96 -146 -108 -146 -13 0 -122 140 -115 148 4 3 10 2 14 -4 4 -6 25 -34 47
-63 l40 -52 3 180 c1 109 6 181 12 181 6 0 10 -70 10 -181z m5255 6 c0 -96 2
-175 5 -175 3 0 25 25 49 56 24 30 45 53 48 50 3 -3 -4 -18 -16 -33 -12 -15
-36 -47 -54 -70 -17 -24 -34 -43 -37 -43 -6 0 -98 111 -114 138 -4 6 -3 12 2
12 5 0 29 -27 53 -60 l44 -61 3 181 c1 99 6 180 10 180 4 0 7 -79 7 -175z
m1595 -378 c30 -16 51 -37 67 -67 l23 -43 0 -826 c0 -454 -4 -831 -8 -838 -4
-6 -7 371 -7 837 0 841 0 849 -21 876 -11 15 -33 37 -48 48 l-27 21 -4197 5
-4197 5 4186 3 4186 2 43 -23z m-8445 -6 c-17 -10 -43 -33 -58 -50 -30 -36
-37 -30 -9 7 19 25 71 62 87 62 6 0 -4 -8 -20 -19z m-91 -135 c-3 -21 -9 -35
-11 -32 -3 3 -2 21 1 42 4 20 10 34 12 31 3 -3 2 -21 -2 -41z m4 -865 c-2
-866 -7 -808 65 -851 18 -11 27 -20 20 -20 -24 0 -83 62 -93 98 -14 52 -14
1552 0 1552 8 0 10 -241 8 -779z m342 643 c0 -56 -4 -94 -10 -94 -6 0 -10 40
-10 101 0 64 4 98 10 94 6 -3 10 -48 10 -101z m979 81 c8 -8 12 -17 8 -21 -3
-3 -13 1 -22 10 -32 32 -106 10 -92 -27 3 -8 27 -20 54 -26 26 -7 53 -17 60
-23 18 -15 16 -48 -4 -70 -29 -33 -133 -19 -133 18 0 13 5 12 26 -5 31 -24 62
-27 88 -8 21 15 18 46 -4 57 -8 5 -34 13 -56 19 -44 12 -59 31 -48 63 12 38
90 46 123 13z m485 -151 c25 -18 46 -18 74 2 19 13 22 24 22 90 0 47 4 74 11
74 8 0 10 -26 7 -81 -4 -92 -16 -109 -78 -109 -55 0 -68 21 -70 110 -2 105 2
110 9 12 5 -67 10 -86 25 -98z m318 149 c28 -25 21 -37 -8 -14 -30 24 -43 26
-77 10 -53 -24 -60 -87 -17 -131 25 -24 36 -29 58 -23 15 3 33 13 39 22 7 9
16 14 20 10 15 -15 -31 -47 -68 -47 -59 0 -94 36 -94 95 0 40 5 51 34 77 27
24 39 29 64 24 17 -3 39 -14 49 -23z m1289 8 c13 -11 21 -22 17 -26 -4 -4 -14
0 -23 9 -33 33 -106 10 -92 -28 3 -8 23 -18 44 -22 76 -13 107 -59 67 -98 -23
-24 -96 -21 -119 4 -25 27 -12 37 14 11 34 -34 101 -21 101 18 0 25 -18 38
-62 46 -46 9 -72 36 -63 65 13 40 78 52 116 21z m331 -8 c28 -25 21 -37 -8
-14 -35 28 -69 26 -99 -4 -59 -59 1 -165 77 -136 14 5 29 15 33 20 3 6 11 11
17 11 6 0 1 -11 -12 -25 -36 -38 -100 -35 -134 6 -76 90 39 221 126 142z m228
-8 c20 -20 25 -35 24 -72 -1 -59 -35 -93 -92 -93 -58 1 -92 38 -92 100 0 89
96 128 160 65z m-3488 -56 l53 -81 3 81 c4 114 22 102 22 -14 0 -70 -3 -95
-12 -95 -7 1 -38 38 -68 83 l-55 82 -3 -83 c-4 -114 -22 -104 -22 13 0 121 11
123 82 14z m254 74 c-4 -4 -28 -8 -53 -8 -45 0 -46 -1 -47 -33 -1 -30 1 -32
36 -32 20 0 40 -4 43 -10 4 -6 -10 -10 -34 -10 l-41 0 0 -45 c0 -29 -4 -45
-12 -45 -10 0 -12 24 -10 95 l3 95 61 0 c34 0 58 -3 54 -7z m178 -9 c22 -22
20 -50 -6 -73 l-21 -20 27 -41 c20 -30 23 -40 11 -40 -8 0 -24 18 -35 40 -18
35 -25 40 -55 40 -34 0 -35 -1 -35 -40 0 -22 -4 -40 -10 -40 -6 0 -10 38 -10
95 l0 95 59 0 c41 0 65 -5 75 -16z m206 -81 c24 -61 33 -93 25 -93 -7 0 -16
11 -19 25 -6 23 -11 25 -61 25 -50 0 -55 -2 -61 -25 -6 -24 -24 -36 -24 -16 0
5 16 48 36 96 26 60 41 85 52 83 8 -2 31 -42 52 -95z m405 86 c-4 -5 -19 -9
-33 -7 l-27 3 -3 -87 c-4 -115 -22 -115 -22 0 l0 88 -35 -4 c-21 -3 -35 0 -35
7 0 7 28 11 81 11 54 0 78 -3 74 -11z m173 -1 c19 -19 14 -65 -9 -82 -21 -15
-21 -15 -2 -43 32 -46 35 -53 21 -53 -7 0 -23 18 -36 40 -19 34 -28 40 -55 40
-31 0 -33 -1 -32 -40 0 -24 -4 -40 -11 -40 -8 0 -12 31 -13 95 l-2 95 64 0
c36 0 68 -5 75 -12z m628 5 c-4 -4 -19 -7 -34 -8 l-27 0 -3 -87 c-4 -113 -22
-115 -22 -3 0 87 -1 90 -42 86 -9 -1 -19 3 -23 9 -4 7 21 10 76 10 45 0 79 -3
75 -7z m66 -70 c3 -72 5 -78 29 -92 24 -13 29 -13 53 2 24 16 26 23 26 92 0
43 4 75 10 75 6 0 10 -31 10 -73 0 -94 -14 -117 -75 -117 -61 0 -75 23 -75
117 0 97 18 94 22 -4z m322 61 c22 -21 20 -50 -5 -75 l-21 -21 26 -39 c17 -24
22 -39 14 -39 -7 0 -23 18 -36 40 -20 35 -27 40 -57 40 -34 0 -35 -1 -35 -40
0 -22 -4 -40 -10 -40 -6 0 -10 38 -10 95 l0 95 59 0 c41 0 65 -5 75 -16z m213
9 c-4 -3 -30 -6 -59 -7 -52 -1 -53 -1 -56 -33 -3 -33 -3 -33 42 -33 25 0 46
-4 46 -10 0 -5 -21 -10 -46 -10 l-45 0 3 -37 3 -38 58 0 c31 0 57 -3 57 -7 0
-5 -31 -8 -70 -8 l-70 0 0 95 0 95 72 0 c39 0 68 -3 65 -7z m265 -35 c9 -24
25 -67 37 -95 21 -53 15 -76 -7 -28 -10 22 -18 25 -66 25 -49 0 -54 -2 -60
-25 -4 -14 -11 -25 -16 -25 -6 0 -1 24 11 53 11 28 28 71 37 95 10 24 23 42
32 42 9 0 22 -17 32 -42z m993 17 c19 -18 25 -35 25 -70 0 -67 -31 -95 -105
-95 l-55 0 0 95 0 95 55 0 c46 0 60 -4 80 -25z m212 18 c-4 -3 -30 -6 -59 -7
-52 -1 -53 -1 -56 -33 -3 -33 -3 -33 42 -33 25 0 46 -4 46 -10 0 -5 -21 -10
-46 -10 l-45 0 3 -37 3 -36 53 0 c29 1 55 -3 58 -8 3 -5 -27 -9 -65 -9 l-71 0
0 95 0 95 72 0 c39 0 68 -3 65 -7z m-300 -431 c10 -6 -1040 -6 -1782 1 -159 1
174 3 740 5 567 1 1035 -2 1042 -6z m2490 -3 c31 -11 83 -57 83 -72 0 -5 -10
3 -22 18 -45 57 0 55 -1103 55 -733 0 -1022 -3 -1038 -11 -12 -6 -33 -21 -47
-33 -20 -17 -22 -18 -10 -2 8 11 29 27 45 38 29 17 78 18 1047 18 694 0 1026
-3 1045 -11z m-4593 -18 c-18 -11 -39 -30 -48 -42 -9 -13 -16 -18 -16 -12 0
14 67 73 83 73 7 0 -2 -9 -19 -19z m2186 -64 c0 -6 -6 -3 -12 8 -6 11 -18 29
-27 40 -9 12 -4 8 12 -7 15 -16 27 -34 27 -41z m-2253 -545 c-1 -97 -2 -15 -2
183 0 198 1 278 2 177 2 -101 2 -263 0 -360z m4750 10 c-1 -97 -2 -17 -2 178
0 195 1 275 2 177 2 -97 2 -257 0 -355z m-2490 1 c-1 -98 -2 -20 -2 172 -1
193 1 273 2 178 2 -94 2 -252 0 -350z m240 5 c-1 -95 -3 -20 -3 167 0 187 2
265 3 173 2 -92 2 -245 0 -340z m1064 152 c20 -55 32 -100 27 -100 -5 0 -13
11 -18 25 -8 22 -15 25 -59 25 -44 0 -49 -3 -55 -25 -4 -14 -11 -25 -16 -25
-5 0 3 30 17 68 14 37 30 82 36 100 6 17 15 32 21 32 6 0 27 -45 47 -100z
m574 -6 c0 -52 -3 -94 -7 -94 -5 0 -8 46 -8 102 0 56 3 98 8 94 4 -4 7 -50 7
-102z m-2605 86 c0 -5 -3 -9 -7 -9 -23 4 -33 -3 -33 -21 0 -14 7 -20 23 -21
l22 -2 -22 -4 c-21 -4 -23 -10 -23 -69 0 -36 -4 -64 -10 -64 -6 0 -10 29 -10
66 0 41 -4 63 -10 59 -5 -3 -10 -1 -10 4 0 6 5 11 10 11 6 0 10 8 10 18 0 10
5 23 12 30 15 15 48 16 48 2z m2377 -12 c-3 -8 -6 -5 -6 6 -1 11 2 17 5 13 3
-3 4 -12 1 -19z m79 -48 c2 0 13 5 23 12 44 27 94 -47 68 -102 -11 -21 -19
-25 -60 -25 l-47 -1 2 96 c1 52 3 78 5 58 2 -21 6 -38 9 -38z m-2993 53 l-33
-4 0 -90 c0 -57 -4 -89 -11 -89 -7 0 -10 29 -8 88 l4 87 -35 6 c-23 4 -9 6 40
6 41 0 60 -2 43 -4z m2718 -43 c15 -9 19 -22 19 -70 0 -33 -4 -60 -10 -60 -5
0 -10 24 -10 54 0 60 -8 71 -46 62 -22 -6 -24 -11 -24 -61 0 -30 -4 -55 -10
-55 -6 0 -10 29 -10 66 0 51 3 65 13 61 8 -3 20 -1 28 4 18 11 26 11 50 -1z
m140 -1 c11 -5 17 -14 14 -19 -4 -6 -13 -5 -24 2 -10 6 -26 8 -35 5 -25 -10
-19 -36 12 -43 36 -9 52 -23 52 -46 0 -34 -75 -44 -101 -12 -9 11 -8 14 4 14
9 0 19 -4 22 -10 9 -15 52 -12 58 5 7 16 -4 25 -48 40 -35 12 -43 36 -20 59
19 19 38 20 66 5z m56 -96 c-2 -21 -4 -4 -4 37 0 41 2 58 4 38 2 -21 2 -55 0
-75z m374 70 c15 -39 11 -43 -41 -43 -34 0 -50 -4 -50 -13 0 -33 53 -49 79
-24 11 10 13 9 9 -3 -3 -9 -19 -16 -40 -18 -56 -5 -83 44 -57 102 19 42 84 41
100 -1z m-3183 14 c6 -6 13 -24 17 -40 7 -27 7 -27 -44 -27 -52 0 -65 -12 -39
-38 17 -17 44 -15 62 4 14 13 16 13 16 1 0 -35 -73 -36 -96 -2 -20 30 -12 89
14 104 24 14 58 13 70 -2z m72 1 c0 -9 3 -9 12 0 13 13 38 16 38 4 0 -4 -10
-12 -22 -17 -19 -8 -24 -19 -26 -62 -4 -78 -22 -64 -22 17 0 40 4 70 10 70 6
0 10 -5 10 -12z m105 2 c7 12 35 14 35 2 0 -4 -10 -12 -22 -17 -19 -8 -24 -19
-26 -62 -5 -79 -22 -64 -22 18 0 60 2 70 14 60 10 -8 16 -9 21 -1z m133 1 c18
-11 30 -131 13 -131 -6 0 -11 5 -11 12 0 9 -3 9 -12 0 -7 -7 -25 -12 -40 -12
-21 0 -29 6 -34 26 -9 33 15 57 55 56 34 -1 41 17 16 38 -12 10 -21 10 -41 1
-34 -15 -43 -13 -20 4 22 17 54 19 74 6z m224 -8 c25 -30 28 -52 13 -89 -12
-30 -19 -34 -49 -34 -46 0 -71 34 -62 85 10 52 66 74 98 38z m77 1 c7 9 20 16
28 16 10 0 3 -11 -17 -30 -28 -26 -32 -35 -28 -70 2 -22 0 -40 -4 -40 -5 0 -8
33 -7 73 0 41 4 64 8 54 6 -17 8 -17 20 -3z m81 4 c0 -9 3 -9 12 0 15 15 55
16 64 1 4 -8 9 -8 17 0 15 15 54 14 63 -1 11 -17 12 -128 2 -128 -4 0 -8 27
-8 61 l0 60 -32 -3 c-33 -3 -33 -4 -37 -63 l-5 -60 -5 60 c-6 59 -7 60 -36 60
-30 0 -30 -1 -33 -57 -4 -82 -22 -72 -22 12 0 40 4 70 10 70 6 0 10 -5 10 -12z
m444 -393 c-9 -14 -26 -31 -38 -37 -13 -7 -9 0 12 21 17 18 32 37 32 43 0 6 3
9 6 6 3 -4 -2 -18 -12 -33z m353 -46 c11 0 13 -3 5 -6 -17 -7 -58 21 -73 49
-9 16 -3 13 18 -9 17 -18 39 -33 50 -34z m2133 42 c-5 -11 -15 -23 -21 -27 -6
-3 -3 5 6 20 20 30 30 35 15 7z m-4640 -40 c17 -7 20 -10 8 -10 -10 -1 -30 11
-46 27 -15 15 -19 19 -7 10 11 -9 31 -21 45 -27z m4590 -1 c-8 -5 -22 -9 -30
-9 -10 0 -8 3 5 9 27 12 43 12 25 0z m-3043 -17 c-279 -2 -735 -2 -1015 0
-279 1 -50 2 508 2 558 0 787 -1 507 -2z m2485 0 c-276 -2 -728 -2 -1005 0
-276 1 -50 2 503 2 553 0 779 -1 502 -2z m2526 -239 c-21 -19 -43 -34 -50 -34
-7 0 1 9 19 20 18 11 38 28 45 39 7 11 15 18 18 15 3 -3 -12 -21 -32 -40z
m-2171 -41 c-1153 -2 -3041 -2 -4195 0 -1153 1 -209 2 2098 2 2307 0 3251 -1
2097 -2z"/>
<path d="M2304 15121 c-17 -11 -36 -34 -43 -52 -14 -41 -15 -569 -1 -621 6
-20 24 -48 41 -62 l31 -26 2779 0 c3037 0 2810 -4 2858 56 20 26 21 37 21 346
l0 320 -29 29 -29 29 -2799 0 c-2732 0 -2799 -1 -2829 -19z m1037 -300 c23
-23 29 -38 29 -71 0 -33 -6 -48 -29 -71 -26 -25 -37 -29 -85 -29 l-56 0 0 100
0 100 56 0 c48 0 59 -4 85 -29z m219 19 c0 -5 -25 -10 -55 -10 -54 0 -55 0
-55 -30 0 -28 2 -30 40 -30 22 0 40 -4 40 -10 0 -5 -18 -10 -40 -10 -25 0 -40
-5 -41 -12 -6 -65 -8 -63 54 -66 81 -4 71 -22 -13 -22 l-70 0 0 100 0 100 70
0 c40 0 70 -4 70 -10z m92 -75 c18 -47 35 -85 38 -85 3 0 19 37 36 82 17 45
35 83 42 86 6 2 -6 -41 -27 -95 -21 -54 -45 -99 -53 -101 -9 -2 -20 16 -32 50
-11 29 -29 74 -42 101 -16 34 -19 47 -9 47 7 0 28 -38 47 -85z m308 75 c0 -5
-25 -10 -55 -10 -54 0 -55 0 -55 -30 0 -28 2 -30 40 -30 22 0 40 -4 40 -10 0
-5 -18 -10 -40 -10 l-40 0 0 -40 0 -40 55 0 c30 0 55 -4 55 -10 0 -6 -29 -10
-67 -10 l-68 0 0 100 0 100 68 0 c38 0 67 -4 67 -10z m80 -80 l0 -90 50 0 c28
0 50 -4 50 -10 0 -6 -29 -10 -66 -10 -56 0 -65 2 -60 16 3 9 6 54 6 100 0 49
4 84 10 84 6 0 10 -37 10 -90z m301 61 c62 -62 20 -171 -66 -171 -53 0 -95 44
-95 98 0 93 97 137 161 73z m207 13 c48 -33 11 -94 -58 -94 l-40 0 0 -45 c0
-33 -4 -45 -15 -45 -12 0 -15 18 -15 100 l0 100 53 0 c31 0 61 -6 75 -16z
m212 6 c0 -6 -26 -10 -57 -10 -57 0 -58 0 -60 -30 -2 -29 -1 -30 42 -30 57 0
59 -18 3 -22 -40 -3 -42 -4 -42 -38 l0 -35 57 -3 c81 -4 71 -22 -13 -22 l-70
0 0 100 0 100 70 0 c40 0 70 -4 70 -10z m182 -7 c24 -21 23 -60 -2 -75 -25
-16 -25 -20 5 -68 18 -28 21 -40 12 -40 -8 0 -25 20 -38 45 -21 39 -28 45 -56
45 -32 0 -33 -1 -33 -45 0 -25 -4 -45 -10 -45 -6 0 -10 40 -10 100 l0 100 57
0 c38 0 62 -5 75 -17z m318 7 c0 -5 -25 -10 -55 -10 -54 0 -55 0 -55 -30 0
-28 2 -30 39 -30 22 0 43 -4 46 -10 4 -6 -12 -10 -39 -10 l-46 0 0 -40 0 -40
55 0 c30 0 55 -4 55 -10 0 -6 -29 -10 -67 -10 l-68 0 3 100 3 100 65 0 c36 0
64 -4 64 -10z m111 -30 l32 -40 29 40 c17 22 34 40 39 40 15 0 9 -13 -21 -50
-17 -19 -30 -38 -30 -43 0 -5 13 -26 28 -46 40 -51 45 -61 30 -61 -7 0 -26 21
-43 45 -16 25 -32 45 -35 45 -3 -1 -20 -21 -38 -45 -18 -25 -38 -45 -44 -45
-7 0 -7 4 -1 13 5 6 23 30 40 53 l32 40 -35 43 c-37 48 -39 51 -24 51 5 0 23
-18 41 -40z m303 18 c21 -30 20 -44 -4 -68 -13 -13 -33 -20 -59 -20 -44 0 -54
-13 -44 -60 4 -23 2 -30 -11 -30 -14 0 -16 14 -16 100 l0 100 59 0 c51 0 62
-3 75 -22z m196 12 c0 -5 -25 -10 -55 -10 -54 0 -55 0 -55 -30 0 -29 2 -30 45
-30 25 0 45 -4 45 -10 0 -5 -20 -10 -45 -10 l-45 0 0 -40 0 -40 60 0 c33 0 60
-4 60 -10 0 -6 -30 -10 -70 -10 l-70 0 0 100 0 100 65 0 c37 0 65 -4 65 -10z
m191 0 c26 -15 25 -64 -2 -84 l-21 -14 27 -46 c19 -32 23 -46 13 -46 -7 0 -24
20 -38 45 -21 39 -29 45 -57 45 -32 0 -33 -1 -33 -45 0 -25 -4 -45 -10 -45 -6
0 -10 40 -10 100 l0 100 56 0 c30 0 64 -5 75 -10z m109 -90 c0 -60 -4 -100
-10 -100 -6 0 -10 40 -10 100 0 60 4 100 10 100 6 0 10 -40 10 -100z m200 90
c0 -5 -25 -10 -55 -10 -54 0 -55 0 -55 -30 0 -28 2 -30 40 -30 22 0 40 -4 40
-10 0 -5 -18 -10 -40 -10 l-40 0 0 -40 0 -40 60 0 c33 0 60 -4 60 -10 0 -6
-32 -10 -76 -10 -65 0 -75 2 -70 16 3 9 6 54 6 100 l0 84 65 0 c37 0 65 -4 65
-10z m132 -67 l53 -78 3 78 c4 113 22 95 22 -23 0 -60 -4 -100 -10 -100 -5 0
-36 39 -67 87 l-58 86 -3 -86 c-4 -121 -22 -110 -22 13 0 126 10 128 82 23z
m293 57 c22 -25 12 -39 -12 -18 -50 45 -123 11 -123 -56 0 -74 68 -109 124
-65 36 28 45 17 13 -15 -37 -37 -89 -35 -128 3 -39 40 -41 109 -4 146 32 33
103 35 130 5z m215 10 c0 -5 -25 -10 -55 -10 -54 0 -55 0 -55 -30 0 -28 2 -30
39 -30 22 0 43 -4 46 -10 4 -6 -12 -10 -39 -10 l-46 0 0 -40 0 -40 60 0 c33 0
60 -4 60 -10 0 -6 -31 -10 -72 -10 l-73 0 3 100 3 100 65 0 c36 0 64 -4 64
-10z"/>
<path d="M3220 14750 l0 -80 44 0 c36 0 48 5 65 26 12 15 21 39 21 54 0 15 -9
39 -21 54 -17 21 -29 26 -65 26 l-44 0 0 -80z"/>
<path d="M4220 14803 c-40 -51 -5 -133 55 -133 60 0 95 82 55 133 -16 20 -30
27 -55 27 -25 0 -39 -7 -55 -27z"/>
<path d="M4450 14794 c0 -35 0 -35 41 -32 79 6 76 68 -2 68 -38 0 -39 -1 -39
-36z"/>
<path d="M4830 14794 l0 -35 46 3 c87 6 84 68 -2 68 -44 0 -44 0 -44 -36z"/>
<path d="M5564 14795 c-1 -35 -1 -35 42 -35 34 0 46 5 54 21 17 30 -4 49 -54
49 -40 0 -41 -1 -42 -35z"/>
<path d="M5950 14794 l0 -35 46 3 c50 3 72 22 61 52 -5 12 -19 16 -57 16 l-50
0 0 -36z"/>
<path d="M1345 13535 c-68 -35 -65 -8 -65 -517 0 -490 1 -502 49 -528 13 -7
383 -10 1116 -10 1205 0 1137 -3 1170 60 14 26 15 91 13 490 l-3 460 -28 27
-27 28 -1098 3 c-969 2 -1101 0 -1127 -13z m1065 -472 c27 -35 27 -102 -1
-137 -17 -22 -28 -26 -70 -26 l-49 0 0 98 0 97 50 -3 c39 -3 54 -9 70 -29z
m320 17 c0 -11 -4 -20 -10 -20 -5 0 -10 9 -10 20 0 11 5 20 10 20 6 0 10 -9
10 -20z m-176 -62 c30 -42 21 -58 -30 -58 -37 0 -45 -3 -42 -16 5 -28 35 -41
58 -26 27 16 35 15 20 -3 -7 -8 -27 -15 -46 -15 -39 0 -54 21 -54 74 0 59 63
88 94 44z m64 -48 l19 -55 17 57 c9 31 21 60 26 63 15 9 12 -3 -14 -75 -13
-36 -28 -65 -32 -65 -9 0 -52 109 -53 135 -2 27 18 -5 37 -60z m112 0 c0 -40
-4 -70 -10 -70 -6 0 -10 30 -10 70 0 40 4 70 10 70 6 0 10 -30 10 -70z m125
45 c14 -13 25 -35 25 -48 0 -35 -31 -69 -63 -69 -41 0 -57 19 -57 68 0 33 5
46 22 58 31 22 45 20 73 -9z m80 17 c19 9 30 7 50 -6 21 -14 25 -24 25 -61 0
-55 -30 -82 -73 -66 -25 10 -26 8 -30 -27 -2 -20 -4 10 -5 68 0 58 2 100 4 93
4 -9 11 -9 29 -1z m148 -3 c34 28 87 -15 87 -70 0 -26 -47 -73 -65 -65 -50 20
-48 21 -41 -17 4 -24 3 -37 -4 -37 -6 0 -10 38 -10 103 0 65 4 97 9 88 8 -12
12 -12 24 -2z m197 -9 c11 -11 20 -29 20 -40 0 -17 -7 -20 -46 -20 -41 0 -45
-2 -42 -22 3 -26 43 -37 61 -19 6 6 16 11 22 11 15 -1 -35 -40 -51 -40 -50 0
-75 104 -32 134 30 21 44 20 68 -4z m70 4 c0 -14 1 -14 16 0 16 17 34 21 34 8
0 -4 -10 -12 -22 -17 -19 -8 -24 -19 -26 -62 -4 -78 -22 -64 -22 17 0 40 4 70
10 70 6 0 10 -7 10 -16z m138 4 c7 -7 12 -17 12 -22 0 -6 -5 -5 -12 2 -20 20
-58 15 -58 -8 0 -13 10 -22 32 -28 47 -12 59 -38 29 -63 -23 -19 -54 -18 -75
2 -16 15 1 21 22 8 11 -7 27 -9 36 -6 28 11 17 33 -24 50 -28 11 -40 21 -40
36 0 34 53 54 78 29z m-1555 -5 c-7 -2 -19 -2 -25 0 -7 3 -2 5 12 5 14 0 19
-2 13 -5z"/>
<path d="M2304 13067 c-3 -8 -4 -45 -2 -83 3 -67 4 -69 30 -72 15 -2 36 2 47
8 41 21 44 118 4 148 -22 16 -72 15 -79 -1z"/>
<path d="M2487 13014 c-4 -4 -7 -16 -7 -26 0 -14 8 -18 36 -18 31 0 35 3 32
23 -2 15 -11 23 -28 25 -14 2 -29 0 -33 -4z"/>
<path d="M2793 13012 c-7 -4 -15 -22 -19 -38 -12 -60 60 -89 80 -32 18 51 -21
95 -61 70z"/>
<path d="M2922 13008 c-17 -17 -15 -73 2 -88 41 -34 88 17 67 73 -11 29 -47
37 -69 15z"/>
<path d="M3077 13013 c-4 -3 -7 -26 -7 -49 0 -38 3 -44 25 -50 15 -4 32 -1 40
6 18 15 20 71 3 88 -13 13 -50 16 -61 5z"/>
<path d="M3217 13014 c-4 -4 -7 -16 -7 -26 0 -14 8 -18 36 -18 31 0 35 3 32
23 -2 15 -11 23 -28 25 -14 2 -29 0 -33 -4z"/>
<path d="M5052 12808 c-17 -17 -15 -73 3 -88 12 -10 21 -10 40 -2 43 20 30
102 -15 102 -9 0 -21 -5 -28 -12z"/>
<path d="M5562 12793 l3 -78 39 1 c48 2 76 31 76 78 0 52 -24 76 -76 76 l-45
0 3 -77z"/>
<path d="M7830 12820 c-23 -23 -24 -29 -10 -64 7 -20 17 -26 39 -26 31 0 41
14 41 60 0 19 -7 33 -19 40 -26 13 -28 13 -51 -10z"/>
<path d="M7980 12820 c-33 -33 -18 -90 23 -90 30 0 47 18 47 50 0 49 -39 71
-70 40z"/>
<path d="M4902 12808 c-16 -16 -15 -60 1 -82 31 -42 87 15 67 68 -10 28 -46
36 -68 14z"/>
<path d="M5201 12801 c-10 -17 -6 -19 29 -23 41 -4 44 -1 34 26 -8 22 -51 20
-63 -3z"/>
<path d="M1870 11340 c0 -40 0 -40 38 -40 42 0 62 14 62 42 0 20 -36 38 -76
38 -21 0 -24 -4 -24 -40z"/>
<path d="M2326 11339 c-10 -24 -20 -50 -23 -56 -4 -9 8 -13 41 -13 25 0 46 2
46 4 0 2 -10 27 -23 56 l-24 53 -17 -44z"/>
<path d="M2760 11296 l0 -84 43 5 c57 7 77 27 77 75 0 52 -35 88 -85 88 l-35
0 0 -84z"/>
<path d="M3725 11355 c-27 -27 -33 -79 -12 -106 48 -63 129 -33 129 48 0 28
-7 43 -27 60 -34 30 -60 29 -90 -2z"/>
<path d="M4320 11340 c0 -40 0 -40 39 -40 45 0 73 22 64 48 -9 25 -23 32 -65
32 -38 0 -38 0 -38 -40z"/>
<path d="M4630 11340 c0 -38 2 -40 31 -40 40 0 69 16 69 38 0 28 -21 42 -62
42 -38 0 -38 0 -38 -40z"/>
<path d="M5034 11365 c-4 -11 -13 -35 -20 -54 -8 -18 -14 -35 -14 -37 0 -2 20
-4 45 -4 25 0 45 2 45 4 0 2 -11 28 -24 57 -20 45 -25 51 -32 34z"/>
<path d="M5552 11358 c-42 -46 -34 -109 17 -134 74 -37 136 71 76 131 -30 31
-65 32 -93 3z"/>
<path d="M6693 11325 l-21 -55 45 0 c41 0 44 2 37 22 -10 33 -34 88 -38 88 -2
0 -12 -25 -23 -55z"/>
<path d="M7716 11330 c-22 -57 -21 -60 25 -60 29 0 40 4 36 13 -2 6 -10 29
-18 50 -7 20 -16 37 -20 37 -4 0 -14 -18 -23 -40z"/>
<path d="M3940 11340 c0 -38 2 -40 31 -40 41 0 69 16 69 40 0 24 -28 40 -69
40 -29 0 -31 -2 -31 -40z"/>
<path d="M5760 11340 l0 -40 43 0 c46 0 67 13 67 42 0 23 -30 38 -74 38 -35 0
-36 -1 -36 -40z"/>
<path d="M6440 11344 l0 -35 46 3 c88 6 81 68 -8 68 -37 0 -38 -1 -38 -36z"/>
<path d="M6442 11253 c3 -40 18 -47 75 -38 20 4 34 13 38 26 11 32 -12 49 -67
49 l-49 0 3 -37z"/>
<path d="M4055 10651 c-25 -5 -31 -12 -33 -38 l-3 -32 78 -4 c65 -2 60 -3 -27
-4 -58 0 -95 2 -82 4 18 4 22 11 22 39 0 34 -1 34 -44 34 -25 0 -48 -6 -55
-14 -8 -9 -11 -63 -9 -167 l3 -154 138 -3 137 -3 0 140 0 140 -44 35 c-23 20
-45 35 -47 35 -2 -1 -17 -4 -34 -8z m55 -148 c0 -5 -24 -7 -52 -5 -95 5 -104
9 -25 11 42 0 77 -2 77 -6z m-67 -63 c54 -1 68 -3 54 -11 -9 -5 -43 -9 -75 -7
-53 3 -57 5 -59 28 -1 14 0 18 3 8 5 -15 18 -18 77 -18z m-20 -83 l52 -3 -57
-2 c-57 -2 -76 7 -61 31 5 9 8 8 11 -5 2 -13 16 -18 55 -21z"/>
<path d="M3700 10079 c-18 -32 -3 -78 27 -85 43 -11 68 40 43 87 -14 26 -56
25 -70 -2z"/>
<path d="M4253 10044 c-18 -8 -16 -43 1 -50 21 -8 58 15 54 34 -3 17 -32 25
-55 16z"/>
<path d="M4480 10081 c-15 -29 -13 -31 30 -31 40 0 45 5 34 34 -9 22 -51 20
-64 -3z"/>
<path d="M6240 9920 l0 -80 35 0 c72 0 114 91 65 140 -13 13 -33 20 -60 20
l-40 0 0 -80z"/>
<path d="M7860 9965 c0 -33 2 -35 35 -35 37 0 56 20 48 51 -4 15 -15 19 -44
19 -38 0 -39 -1 -39 -35z"/>
<path d="M8250 9931 c-25 -48 -3 -96 42 -89 19 2 24 10 26 41 2 21 -2 45 -9
53 -16 20 -46 17 -59 -5z"/>
<path d="M5790 9931 c-15 -29 -13 -31 30 -31 41 0 52 14 28 38 -18 18 -46 14
-58 -7z"/>
<path d="M6434 9924 c-22 -33 -9 -78 24 -82 32 -5 52 15 52 52 0 58 -46 76
-76 30z"/>
<path d="M1260 9820 c0 -38 2 -40 31 -40 40 0 69 16 69 38 0 28 -21 42 -62 42
-38 0 -38 0 -38 -40z"/>
<path d="M1443 9798 c-27 -35 -25 -38 23 -38 46 0 46 0 32 23 -18 26 -41 33
-55 15z"/>
<path d="M1587 9792 c-33 -36 -16 -92 28 -92 44 0 59 46 29 88 -18 27 -36 28
-57 4z"/>
<path d="M1740 9790 c-23 -23 -24 -29 -10 -64 18 -47 80 -29 80 24 0 49 -39
71 -70 40z"/>
<path d="M2166 9794 c-33 -33 -17 -94 25 -94 22 0 32 6 39 25 11 30 -1 70 -25
79 -22 8 -21 8 -39 -10z"/>
<path d="M2468 9799 c-33 -19 -21 -39 22 -39 33 0 38 3 33 18 -6 16 -22 32
-33 32 -3 -1 -13 -5 -22 -11z"/>
<path d="M3606 9794 c-25 -25 -19 -34 24 -34 22 0 40 4 40 9 0 12 -29 41 -40
41 -5 0 -16 -7 -24 -16z"/>
<path d="M3987 9792 c-33 -36 -16 -92 28 -92 28 0 45 19 45 50 0 26 -26 60
-47 60 -5 0 -17 -8 -26 -18z"/>
<path d="M4183 9734 c-8 -23 12 -38 41 -30 39 10 36 46 -4 46 -19 0 -33 -6
-37 -16z"/>
<path d="M4446 9794 c-25 -25 -19 -34 24 -34 22 0 40 4 40 9 0 12 -29 41 -40
41 -5 0 -16 -7 -24 -16z"/>
<path d="M1160 8245 l0 -36 48 3 c45 3 47 4 47 33 0 29 -2 30 -47 33 l-48 3 0
-36z"/>
<path d="M1561 8243 c-8 -21 -16 -44 -18 -50 -4 -9 7 -13 37 -13 29 0 40 4 36
13 -2 6 -10 29 -17 50 -7 20 -15 37 -19 37 -3 0 -12 -17 -19 -37z"/>
<path d="M2087 8269 c-28 -17 -39 -57 -26 -96 19 -58 82 -72 118 -27 56 71
-17 167 -92 123z"/>
<path d="M2290 8245 c0 -42 17 -52 69 -39 27 7 37 15 39 33 5 30 -12 41 -65
41 -43 0 -43 0 -43 -35z"/>
<path d="M3272 8243 c2 -31 7 -39 27 -41 37 -6 69 6 76 29 10 31 -12 49 -62
49 l-44 0 3 -37z"/>
<path d="M6108 7554 l-88 -46 0 -107 0 -106 88 -52 c48 -29 91 -53 96 -53 5 0
46 24 92 53 l84 52 0 106 0 107 -89 46 c-49 25 -91 46 -93 46 -1 -1 -42 -21
-90 -46z"/>
<path d="M1740 7350 l0 -100 170 0 170 0 0 100 0 100 -170 0 -170 0 0 -100z"/>
<path d="M2090 7349 l0 -100 33 3 32 3 3 98 3 97 -36 0 -35 0 0 -101z"/>
<path d="M6233 6933 c-18 -7 -16 -42 1 -49 22 -8 56 14 56 36 0 20 -27 26 -57
13z"/>
<path d="M6580 6971 c-15 -29 -13 -31 30 -31 40 0 45 5 34 34 -9 22 -51 20
-64 -3z"/>
<path d="M5824 6982 c-35 -23 -21 -102 19 -102 31 0 47 18 47 55 0 46 -33 69
-66 47z"/>
<path d="M4280 6840 l0 -80 43 0 c56 0 77 22 77 78 0 55 -26 82 -80 82 l-40 0
0 -80z"/>
<path d="M1240 6739 l0 -40 43 3 c36 3 42 6 45 27 5 30 -20 51 -60 51 -26 0
-28 -3 -28 -41z"/>
<path d="M7967 6762 c-31 -34 -14 -92 28 -92 41 0 61 63 29 94 -20 21 -37 20
-57 -2z"/>
<path d="M8436 6764 c-19 -18 -21 -65 -4 -82 31 -31 78 -3 78 47 0 22 -25 51
-45 51 -7 0 -21 -7 -29 -16z"/>
<path d="M8896 6764 c-34 -33 -9 -99 35 -92 20 2 25 9 27 41 5 59 -28 86 -62
51z"/>
<path d="M5720 6710 c0 -40 0 -40 39 -40 46 0 66 19 57 55 -6 22 -12 25 -51
25 l-45 0 0 -40z"/>
<path d="M1412 6708 c-24 -24 -13 -38 28 -38 43 0 45 2 30 31 -12 21 -40 25
-58 7z"/>
<path d="M1573 6713 c-8 -3 -13 -23 -13 -49 0 -38 3 -44 25 -50 34 -8 55 11
55 50 0 47 -26 66 -67 49z"/>
<path d="M1712 6708 c-16 -16 -15 -60 1 -83 20 -26 65 -13 73 21 14 55 -38 98
-74 62z"/>
<path d="M2161 6706 c-17 -20 -10 -77 12 -90 25 -16 51 4 55 43 4 36 -12 61
-38 61 -10 0 -23 -6 -29 -14z"/>
<path d="M2471 6702 c-13 -25 -5 -32 36 -32 30 0 34 3 31 23 -4 30 -52 37 -67
9z"/>
<path d="M5912 6688 c-24 -24 -13 -38 28 -38 33 0 38 3 33 18 -12 32 -40 41
-61 20z"/>
<path d="M6052 6688 c-14 -14 -16 -67 -3 -86 5 -8 21 -12 37 -10 26 3 29 7 32
43 5 53 -35 84 -66 53z"/>
<path d="M1563 5225 c-32 -22 -39 -76 -17 -114 31 -53 92 -54 119 -1 21 42 19
73 -10 104 -27 29 -60 33 -92 11z"/>
<path d="M1980 5155 l0 -85 38 0 c59 0 82 22 82 80 0 41 -4 52 -26 69 -15 12
-41 21 -60 21 l-34 0 0 -85z"/>
<path d="M2770 5200 l0 -40 43 0 c46 0 67 13 67 42 0 21 -36 38 -81 38 -27 0
-29 -2 -29 -40z"/>
<path d="M3016 5200 c-10 -25 -20 -51 -23 -57 -4 -9 8 -13 41 -13 25 0 46 3
45 8 0 4 -10 29 -23 57 l-22 49 -18 -44z"/>
<path d="M3570 5200 l0 -40 43 0 c46 0 67 13 67 42 0 21 -36 38 -81 38 -27 0
-29 -2 -29 -40z"/>
<path d="M4600 5201 l0 -41 45 0 c39 0 47 4 57 25 15 34 2 46 -56 52 l-46 6 0
-42z"/>
<path d="M5660 5200 c0 -40 0 -40 38 -40 43 0 62 14 62 46 0 25 -17 34 -66 34
-33 0 -34 -1 -34 -40z"/>
<path d="M3940 4558 c-69 -19 -77 -41 -22 -60 90 -31 324 -2 292 37 -7 8 -29
19 -49 25 -45 12 -174 11 -221 -2z"/>
<path d="M1770 4420 l0 -130 185 0 185 0 0 130 0 130 -185 0 -185 0 0 -130z"/>
<path d="M6115 4531 c-123 -77 -141 -211 -39 -301 45 -39 68 -41 52 -2 -6 15
-14 52 -17 82 l-6 55 -45 6 -45 6 46 1 45 2 13 50 c7 27 24 66 37 85 20 31 21
35 6 35 -9 0 -30 -8 -47 -19z"/>
<path d="M6172 4523 c-17 -26 -52 -115 -52 -135 0 -4 29 -8 65 -8 65 0 65 0
65 28 0 16 -7 50 -16 76 -9 26 -14 50 -11 53 8 7 37 -95 37 -129 0 -27 1 -28
55 -28 60 0 64 5 44 57 -14 38 -46 71 -91 94 -51 26 -73 24 -96 -8z"/>
<path d="M6120 4330 c0 -22 4 -48 9 -58 5 -9 13 -30 18 -47 12 -43 56 -48 71
-8 16 42 32 105 32 131 0 21 -4 22 -65 22 l-65 0 0 -40z m73 -67 c-7 -2 -19
-2 -25 0 -7 3 -2 5 12 5 14 0 19 -2 13 -5z"/>
<path d="M6260 4344 c0 -34 -20 -116 -33 -132 -17 -21 -1 -24 39 -7 53 22 69
36 52 46 -9 6 -7 9 9 9 22 0 43 41 43 86 0 22 -4 24 -55 24 -52 0 -55 -1 -55
-26z"/>
<path d="M3870 4415 c0 -42 14 -51 108 -65 51 -8 87 -8 132 0 90 16 110 28
110 63 0 23 -4 28 -16 23 -82 -32 -234 -33 -295 -2 -18 9 -34 16 -36 16 -1 0
-3 -16 -3 -35z"/>
<path d="M7864 3936 c-14 -57 17 -103 54 -80 21 13 28 70 11 90 -19 23 -58 18
-65 -10z"/>
<path d="M4302 3948 c-31 -31 -3 -102 39 -96 22 3 24 8 24 53 0 46 -2 50 -25
53 -14 2 -31 -3 -38 -10z"/>
<path d="M6110 3975 c0 -34 1 -35 39 -35 42 0 57 17 46 51 -5 14 -16 19 -46
19 -38 0 -39 -1 -39 -35z"/>
<path d="M1622 3948 c-17 -17 -15 -73 2 -88 42 -34 92 22 68 75 -13 27 -49 34
-70 13z"/>
<path d="M2012 3951 c-19 -12 -11 -81 11 -95 36 -23 67 23 53 80 -7 25 -37 32
-64 15z"/>
<path d="M2412 3948 c-24 -24 -13 -38 28 -38 26 0 40 5 40 13 0 18 -21 37 -40
37 -9 0 -21 -5 -28 -12z"/>
<path d="M3998 3935 c-18 -41 0 -80 37 -80 23 0 32 6 39 27 14 39 -6 78 -39
78 -18 0 -29 -8 -37 -25z"/>
<path d="M8022 3948 c-24 -24 -13 -38 28 -38 26 0 40 5 40 13 0 18 -21 37 -40
37 -9 0 -21 -5 -28 -12z"/>
<path d="M7777 3718 c-21 -11 -22 -31 -3 -47 20 -16 46 -3 46 24 0 27 -19 37
-43 23z"/>
<path d="M7763 3629 c-17 -17 -17 -54 0 -67 16 -14 57 -4 57 14 0 7 -10 25
-22 39 -19 21 -25 24 -35 14z"/>
<path d="M8027 3663 c-9 -27 -17 -50 -17 -53 0 -3 17 -4 39 -2 l38 4 -16 49
c-9 27 -18 49 -22 49 -3 0 -13 -21 -22 -47z"/>
<path d="M1890 3639 c-23 -41 14 -98 53 -83 20 7 32 71 16 90 -17 21 -57 17
-69 -7z"/>
<path d="M2278 3659 c-33 -19 -21 -39 22 -39 43 0 49 9 24 34 -18 19 -23 19
-46 5z"/>
<path d="M3897 3658 c-25 -14 -23 -84 3 -98 36 -19 62 4 58 52 -3 45 -29 64
-61 46z"/>
<path d="M4117 3603 c-13 -12 -7 -41 9 -47 22 -9 54 11 54 34 0 15 -7 20 -28
20 -16 0 -32 -3 -35 -7z"/>
<path d="M4264 3636 c-14 -56 17 -96 60 -80 13 5 16 17 14 53 -3 44 -5 46 -35
49 -28 3 -33 -1 -39 -22z"/>
<path d="M4427 3652 c-25 -27 -21 -32 23 -32 41 0 52 14 28 38 -17 17 -32 15
-51 -6z"/>
<path d="M5748 3659 c-33 -19 -21 -39 22 -39 43 0 49 9 24 34 -18 19 -23 19
-46 5z"/>
<path d="M6212 3654 c-26 -18 -30 -65 -6 -88 20 -21 30 -20 55 5 25 25 22 66
-6 85 -18 12 -24 11 -43 -2z"/>
<path d="M6802 3648 c-33 -33 3 -103 49 -91 17 5 20 13 17 52 -3 41 -6 46 -28
49 -14 2 -31 -3 -38 -10z"/>
<path d="M8478 3659 c-33 -19 -21 -39 22 -39 44 0 55 21 21 40 -23 12 -22 12
-43 -1z"/>
<path d="M4675 2195 c-47 -46 -25 -126 37 -141 22 -5 33 0 58 24 39 39 39 74
1 113 -36 35 -64 37 -96 4z"/>
<path d="M1620 2180 l0 -40 43 0 c46 0 67 13 67 42 0 23 -30 38 -74 38 -35 0
-36 -1 -36 -40z"/>
<path d="M1864 2173 c-10 -26 -20 -51 -22 -55 -2 -5 17 -8 42 -8 l46 0 -21 53
c-11 28 -22 53 -23 55 -2 1 -12 -19 -22 -45z"/>
<path d="M2405 2211 c-3 -2 -5 -19 -5 -38 0 -32 1 -33 44 -33 47 0 70 17 64
47 -2 13 -16 19 -51 23 -26 4 -50 4 -52 1z"/>
<path d="M3420 2180 l0 -40 43 0 c46 0 67 13 67 41 0 23 -9 28 -64 34 l-46 4
0 -39z"/>
<path d="M3956 2167 c-9 -23 -16 -46 -16 -50 0 -4 18 -7 41 -7 29 0 40 4 36
13 -2 6 -10 29 -18 50 -7 20 -16 37 -20 37 -3 0 -14 -19 -23 -43z"/>
<path d="M4890 2136 l0 -86 34 0 c53 0 86 33 86 84 0 52 -22 75 -79 83 l-41 6
0 -87z"/>
<path d="M6255 1385 c-4 -11 -14 -35 -21 -52 l-13 -33 40 0 c44 0 45 2 14 75
-12 27 -13 28 -20 10z"/>
<path d="M6742 1338 c-17 -17 -15 -73 2 -88 42 -34 92 22 68 75 -13 27 -49 34
-70 13z"/>
<path d="M6952 1338 c-24 -24 -13 -38 28 -38 40 0 45 5 34 34 -7 19 -45 21
-62 4z"/>
<path d="M3786 1334 c-25 -25 -19 -34 24 -34 43 0 45 2 30 31 -13 23 -33 24
-54 3z"/>
<path d="M4097 1283 c-12 -12 -7 -43 7 -49 22 -8 56 14 56 36 0 15 -7 20 -28
20 -16 0 -32 -3 -35 -7z"/>
<path d="M4312 1328 c-17 -17 -15 -64 4 -82 43 -43 94 17 64 75 -12 21 -50 25
-68 7z"/>
</g>
</svg>
