<?xml version="1.0" encoding="UTF-8"?>
<svg width="800" height="1030" viewBox="0 0 800 1030" xmlns="http://www.w3.org/2000/svg">
  <!-- Background -->
  <rect width="800" height="1030" fill="#f8f9fa"/>
  
  <!-- Layer 1: Developer Experience -->
  <rect x="50" y="30" width="700" height="140" rx="15" fill="#e8f5e8" stroke="#4CAF50" stroke-width="3"/>
  <text x="400" y="55" text-anchor="middle" font-family="Arial, sans-serif" font-size="18" font-weight="bold" fill="#2e7d32">DEVELOPER EXPERIENCE</text>
  
  <!-- DevEx boxes -->
  <rect x="80" y="80" width="180" height="50" rx="10" fill="#4CAF50" fill-opacity="0.8" stroke="#4CAF50" stroke-width="2"/>
  <text x="170" y="110" text-anchor="middle" font-family="Arial, sans-serif" font-size="14" fill="white" font-weight="bold">Developers</text>
  
  <rect x="310" y="80" width="180" height="50" rx="10" fill="#66BB6A" fill-opacity="0.8" stroke="#66BB6A" stroke-width="2"/>
  <text x="400" y="110" text-anchor="middle" font-family="Arial, sans-serif" font-size="14" fill="white" font-weight="bold">VS Code/IDEs</text>
  
  <rect x="540" y="80" width="180" height="50" rx="10" fill="#81C784" fill-opacity="0.8" stroke="#81C784" stroke-width="2"/>
  <text x="630" y="110" text-anchor="middle" font-family="Arial, sans-serif" font-size="14" fill="white" font-weight="bold">CLI Tools</text>
  
  <!-- Arrows -->
  <line x1="170" y1="150" x2="170" y2="180" stroke="#4CAF50" stroke-width="3"/>
  <polygon points="165,180 170,190 175,180" fill="#4CAF50"/>
  <line x1="400" y1="150" x2="400" y2="180" stroke="#4CAF50" stroke-width="3"/>
  <polygon points="395,180 400,190 405,180" fill="#4CAF50"/>
  <line x1="630" y1="150" x2="630" y2="180" stroke="#4CAF50" stroke-width="3"/>
  <polygon points="625,180 630,190 635,180" fill="#4CAF50"/>
  
  <!-- Layer 2: Internal Developer Platform -->
  <rect x="50" y="200" width="700" height="140" rx="15" fill="#e3f2fd" stroke="#2196F3" stroke-width="3"/>
  <text x="400" y="225" text-anchor="middle" font-family="Arial, sans-serif" font-size="18" font-weight="bold" fill="#1565c0">INTERNAL DEVELOPER PLATFORM (BACKSTAGE)</text>
  
  <!-- Backstage boxes -->
  <rect x="80" y="245" width="140" height="70" rx="10" fill="#2196F3" fill-opacity="0.8" stroke="#2196F3" stroke-width="2"/>
  <text x="150" y="270" text-anchor="middle" font-family="Arial, sans-serif" font-size="12" fill="white" font-weight="bold">Git</text>
  <text x="150" y="290" text-anchor="middle" font-family="Arial, sans-serif" font-size="12" fill="white" font-weight="bold">Repositories</text>
  
  <rect x="250" y="245" width="140" height="70" rx="10" fill="#42A5F5" fill-opacity="0.8" stroke="#42A5F5" stroke-width="2"/>
  <text x="320" y="270" text-anchor="middle" font-family="Arial, sans-serif" font-size="12" fill="white" font-weight="bold">Software</text>
  <text x="320" y="290" text-anchor="middle" font-family="Arial, sans-serif" font-size="12" fill="white" font-weight="bold">Templates</text>
  
  <rect x="420" y="245" width="140" height="70" rx="10" fill="#64B5F6" fill-opacity="0.8" stroke="#64B5F6" stroke-width="2"/>
  <text x="490" y="285" text-anchor="middle" font-family="Arial, sans-serif" font-size="12" fill="white" font-weight="bold">TechDocs</text>
  
  <rect x="590" y="245" width="140" height="70" rx="10" fill="#90CAF9" fill-opacity="0.8" stroke="#90CAF9" stroke-width="2"/>
  <text x="660" y="285" text-anchor="middle" font-family="Arial, sans-serif" font-size="12" fill="white" font-weight="bold">Plugins</text>
  
  <!-- Arrows -->
  <line x1="220" y1="360" x2="220" y2="390" stroke="#2196F3" stroke-width="3"/>
  <polygon points="215,390 220,400 225,390" fill="#2196F3"/>
  <line x1="400" y1="360" x2="400" y2="390" stroke="#2196F3" stroke-width="3"/>
  <polygon points="395,390 400,400 405,390" fill="#2196F3"/>
  <line x1="580" y1="360" x2="580" y2="390" stroke="#2196F3" stroke-width="3"/>
  <polygon points="575,390 580,400 585,390" fill="#2196F3"/>
  
  <!-- Layer 3: Platform Services -->
  <rect x="50" y="410" width="700" height="140" rx="15" fill="#f3e5f5" stroke="#9C27B0" stroke-width="3"/>
  <text x="400" y="435" text-anchor="middle" font-family="Arial, sans-serif" font-size="18" font-weight="bold" fill="#7B1FA2">PLATFORM SERVICES</text>
  
  <!-- Platform boxes -->
  <rect x="80" y="455" width="140" height="70" rx="10" fill="#9C27B0" fill-opacity="0.8" stroke="#9C27B0" stroke-width="2"/>
  <text x="150" y="480" text-anchor="middle" font-family="Arial, sans-serif" font-size="12" fill="white" font-weight="bold">Git</text>
  <text x="150" y="500" text-anchor="middle" font-family="Arial, sans-serif" font-size="12" fill="white" font-weight="bold">Repositories</text>
  
  <rect x="250" y="455" width="140" height="70" rx="10" fill="#AB47BC" fill-opacity="0.8" stroke="#AB47BC" stroke-width="2"/>
  <text x="320" y="495" text-anchor="middle" font-family="Arial, sans-serif" font-size="12" fill="white" font-weight="bold">CI/CD</text>
  
  <rect x="420" y="455" width="140" height="70" rx="10" fill="#BA68C8" fill-opacity="0.8" stroke="#BA68C8" stroke-width="2"/>
  <text x="490" y="480" text-anchor="middle" font-family="Arial, sans-serif" font-size="12" fill="white" font-weight="bold">Container</text>
  <text x="490" y="500" text-anchor="middle" font-family="Arial, sans-serif" font-size="12" fill="white" font-weight="bold">Registry</text>
  
  <rect x="590" y="455" width="140" height="70" rx="10" fill="#CE93D8" fill-opacity="0.8" stroke="#CE93D8" stroke-width="2"/>
  <text x="660" y="495" text-anchor="middle" font-family="Arial, sans-serif" font-size="12" fill="white" font-weight="bold">Monitoring</text>
  
  <!-- Arrows -->
  <line x1="220" y1="570" x2="220" y2="600" stroke="#9C27B0" stroke-width="3"/>
  <polygon points="215,600 220,610 225,600" fill="#9C27B0"/>
  <line x1="580" y1="570" x2="580" y2="600" stroke="#9C27B0" stroke-width="3"/>
  <polygon points="575,600 580,610 585,600" fill="#9C27B0"/>
  
  <!-- Layer 4: Cloud Infrastructure -->
  <rect x="50" y="620" width="700" height="140" rx="15" fill="#fff3e0" stroke="#FF9800" stroke-width="3"/>
  <text x="400" y="645" text-anchor="middle" font-family="Arial, sans-serif" font-size="18" font-weight="bold" fill="#F57C00">CLOUD INFRASTRUCTURE (GCP)</text>
  
  <!-- Cloud boxes -->
  <rect x="80" y="665" width="140" height="70" rx="10" fill="#FF9800" fill-opacity="0.8" stroke="#FF9800" stroke-width="2"/>
  <text x="150" y="690" text-anchor="middle" font-family="Arial, sans-serif" font-size="12" fill="white" font-weight="bold">Compute</text>
  <text x="150" y="710" text-anchor="middle" font-family="Arial, sans-serif" font-size="12" fill="white" font-weight="bold">Engine</text>
  
  <rect x="250" y="665" width="140" height="70" rx="10" fill="#FFB74D" fill-opacity="0.8" stroke="#FFB74D" stroke-width="2"/>
  <text x="320" y="690" text-anchor="middle" font-family="Arial, sans-serif" font-size="12" fill="white" font-weight="bold">Cloud</text>
  <text x="320" y="710" text-anchor="middle" font-family="Arial, sans-serif" font-size="12" fill="white" font-weight="bold">Storage</text>
  
  <rect x="420" y="665" width="140" height="70" rx="10" fill="#FFCC02" fill-opacity="0.8" stroke="#FFCC02" stroke-width="2"/>
  <text x="490" y="690" text-anchor="middle" font-family="Arial, sans-serif" font-size="12" fill="#333" font-weight="bold">VPC/</text>
  <text x="490" y="710" text-anchor="middle" font-family="Arial, sans-serif" font-size="12" fill="#333" font-weight="bold">Networking</text>
  
  <rect x="590" y="665" width="140" height="70" rx="10" fill="#FFE082" fill-opacity="0.8" stroke="#FFE082" stroke-width="2"/>
  <text x="660" y="690" text-anchor="middle" font-family="Arial, sans-serif" font-size="12" fill="#333" font-weight="bold">Identity</text>
  <text x="660" y="710" text-anchor="middle" font-family="Arial, sans-serif" font-size="12" fill="#333" font-weight="bold">and Access</text>
  
  <!-- Arrows -->
  <line x1="320" y1="780" x2="320" y2="810" stroke="#FF9800" stroke-width="3"/>
  <polygon points="315,810 320,820 325,810" fill="#FF9800"/>
  <line x1="480" y1="780" x2="480" y2="810" stroke="#FF9800" stroke-width="3"/>
  <polygon points="475,810 480,820 485,810" fill="#FF9800"/>
  
  <!-- Layer 5: Infrastructure as Code -->
  <rect x="50" y="830" width="700" height="60" rx="15" fill="#fce4ec" stroke="#E91E63" stroke-width="3"/>
  <text x="400" y="850" text-anchor="middle" font-family="Arial, sans-serif" font-size="16" font-weight="bold" fill="#C2185B">INFRASTRUCTURE AS CODE</text>
  
  <!-- IaC boxes -->
  <rect x="200" y="860" width="160" height="25" rx="8" fill="#E91E63" fill-opacity="0.8" stroke="#E91E63" stroke-width="2"/>
  <text x="280" y="877" text-anchor="middle" font-family="Arial, sans-serif" font-size="12" fill="white" font-weight="bold">Terraform</text>
  
  <rect x="400" y="860" width="160" height="25" rx="8" fill="#F06292" fill-opacity="0.8" stroke="#F06292" stroke-width="2"/>
  <text x="480" y="877" text-anchor="middle" font-family="Arial, sans-serif" font-size="12" fill="white" font-weight="bold">Ansible</text>
</svg>
